<?xml version="1.0" encoding="utf-8" standalone="no"?>
<!DOCTYPE svg PUBLIC "-//W3C//DTD SVG 1.1//EN"
  "http://www.w3.org/Graphics/SVG/1.1/DTD/svg11.dtd">
<svg xmlns:xlink="http://www.w3.org/1999/xlink" width="424.4325pt" height="325.986375pt" viewBox="0 0 424.4325 325.986375" xmlns="http://www.w3.org/2000/svg" version="1.1">
 <metadata>
  <rdf:RDF xmlns:dc="http://purl.org/dc/elements/1.1/" xmlns:cc="http://creativecommons.org/ns#" xmlns:rdf="http://www.w3.org/1999/02/22-rdf-syntax-ns#">
   <cc:Work>
    <dc:type rdf:resource="http://purl.org/dc/dcmitype/StillImage"/>
    <dc:date>2022-10-18T07:29:35.484165</dc:date>
    <dc:format>image/svg+xml</dc:format>
    <dc:creator>
     <cc:Agent>
      <dc:title>Matplotlib v3.5.1, https://matplotlib.org/</dc:title>
     </cc:Agent>
    </dc:creator>
   </cc:Work>
  </rdf:RDF>
 </metadata>
 <defs>
  <style type="text/css">*{stroke-linejoin: round; stroke-linecap: butt}</style>
 </defs>
 <g id="figure_1">
  <g id="patch_1">
   <path d="M 0 325.986375 
L 424.4325 325.986375 
L 424.4325 0 
L 0 0 
z
" style="fill: #ffffff"/>
  </g>
  <g id="axes_1">
   <g id="patch_2">
    <path d="M 52.160938 288.430125 
L 409.280938 288.430125 
L 409.280938 22.318125 
L 52.160938 22.318125 
z
" style="fill: #ffffff"/>
   </g>
   <g id="PathCollection_1">
    <defs>
     <path id="m2b3ce6e75f" d="M 0 3 
C 0.795609 3 1.55874 2.683901 2.12132 2.12132 
C 2.683901 1.55874 3 0.795609 3 0 
C 3 -0.795609 2.683901 -1.55874 2.12132 -2.12132 
C 1.55874 -2.683901 0.795609 -3 0 -3 
C -0.795609 -3 -1.55874 -2.683901 -2.12132 -2.12132 
C -2.683901 -1.55874 -3 -0.795609 -3 0 
C -3 0.795609 -2.683901 1.55874 -2.12132 2.12132 
C -1.55874 2.683901 -0.795609 3 0 3 
z
" style="stroke: #0000ff"/>
    </defs>
    <g clip-path="url(#p8bb4b5c353)">
     <use xlink:href="#m2b3ce6e75f" x="52.160938" y="147.917042" style="fill: #0000ff; stroke: #0000ff"/>
     <use xlink:href="#m2b3ce6e75f" x="55.732138" y="157.602609" style="fill: #0000ff; stroke: #0000ff"/>
     <use xlink:href="#m2b3ce6e75f" x="59.303338" y="132.246325" style="fill: #0000ff; stroke: #0000ff"/>
     <use xlink:href="#m2b3ce6e75f" x="62.874538" y="144.033591" style="fill: #0000ff; stroke: #0000ff"/>
     <use xlink:href="#m2b3ce6e75f" x="66.445738" y="140.451782" style="fill: #0000ff; stroke: #0000ff"/>
     <use xlink:href="#m2b3ce6e75f" x="70.016938" y="127.942205" style="fill: #0000ff; stroke: #0000ff"/>
     <use xlink:href="#m2b3ce6e75f" x="73.588138" y="136.029471" style="fill: #0000ff; stroke: #0000ff"/>
     <use xlink:href="#m2b3ce6e75f" x="77.159338" y="131.476188" style="fill: #0000ff; stroke: #0000ff"/>
     <use xlink:href="#m2b3ce6e75f" x="80.730538" y="140.731318" style="fill: #0000ff; stroke: #0000ff"/>
     <use xlink:href="#m2b3ce6e75f" x="84.301738" y="127.803653" style="fill: #0000ff; stroke: #0000ff"/>
     <use xlink:href="#m2b3ce6e75f" x="87.872938" y="110.294204" style="fill: #0000ff; stroke: #0000ff"/>
     <use xlink:href="#m2b3ce6e75f" x="91.444138" y="123.234033" style="fill: #0000ff; stroke: #0000ff"/>
     <use xlink:href="#m2b3ce6e75f" x="95.015338" y="112.327553" style="fill: #0000ff; stroke: #0000ff"/>
     <use xlink:href="#m2b3ce6e75f" x="98.586538" y="117.795843" style="fill: #0000ff; stroke: #0000ff"/>
     <use xlink:href="#m2b3ce6e75f" x="102.157738" y="119.025179" style="fill: #0000ff; stroke: #0000ff"/>
     <use xlink:href="#m2b3ce6e75f" x="105.728938" y="103.018511" style="fill: #0000ff; stroke: #0000ff"/>
     <use xlink:href="#m2b3ce6e75f" x="109.300138" y="99.4002" style="fill: #0000ff; stroke: #0000ff"/>
     <use xlink:href="#m2b3ce6e75f" x="112.871338" y="95.71222" style="fill: #0000ff; stroke: #0000ff"/>
     <use xlink:href="#m2b3ce6e75f" x="116.442538" y="106.836546" style="fill: #0000ff; stroke: #0000ff"/>
     <use xlink:href="#m2b3ce6e75f" x="120.013738" y="78.084147" style="fill: #0000ff; stroke: #0000ff"/>
     <use xlink:href="#m2b3ce6e75f" x="123.584938" y="76.075346" style="fill: #0000ff; stroke: #0000ff"/>
     <use xlink:href="#m2b3ce6e75f" x="127.156138" y="91.807338" style="fill: #0000ff; stroke: #0000ff"/>
     <use xlink:href="#m2b3ce6e75f" x="130.727338" y="74.784694" style="fill: #0000ff; stroke: #0000ff"/>
     <use xlink:href="#m2b3ce6e75f" x="134.298538" y="94.378222" style="fill: #0000ff; stroke: #0000ff"/>
     <use xlink:href="#m2b3ce6e75f" x="137.869738" y="66.1167" style="fill: #0000ff; stroke: #0000ff"/>
     <use xlink:href="#m2b3ce6e75f" x="141.440938" y="88.82127" style="fill: #0000ff; stroke: #0000ff"/>
     <use xlink:href="#m2b3ce6e75f" x="145.012138" y="58.493793" style="fill: #0000ff; stroke: #0000ff"/>
     <use xlink:href="#m2b3ce6e75f" x="148.583338" y="80.355916" style="fill: #0000ff; stroke: #0000ff"/>
     <use xlink:href="#m2b3ce6e75f" x="152.154538" y="85.858306" style="fill: #0000ff; stroke: #0000ff"/>
     <use xlink:href="#m2b3ce6e75f" x="155.725738" y="62.653325" style="fill: #0000ff; stroke: #0000ff"/>
     <use xlink:href="#m2b3ce6e75f" x="159.296938" y="64.441236" style="fill: #0000ff; stroke: #0000ff"/>
     <use xlink:href="#m2b3ce6e75f" x="162.868138" y="78.104892" style="fill: #0000ff; stroke: #0000ff"/>
     <use xlink:href="#m2b3ce6e75f" x="166.439338" y="78.847953" style="fill: #0000ff; stroke: #0000ff"/>
     <use xlink:href="#m2b3ce6e75f" x="170.010538" y="86.160376" style="fill: #0000ff; stroke: #0000ff"/>
     <use xlink:href="#m2b3ce6e75f" x="173.581738" y="74.29981" style="fill: #0000ff; stroke: #0000ff"/>
     <use xlink:href="#m2b3ce6e75f" x="177.152938" y="62.119834" style="fill: #0000ff; stroke: #0000ff"/>
     <use xlink:href="#m2b3ce6e75f" x="180.724138" y="58.006362" style="fill: #0000ff; stroke: #0000ff"/>
     <use xlink:href="#m2b3ce6e75f" x="184.295338" y="72.838322" style="fill: #0000ff; stroke: #0000ff"/>
     <use xlink:href="#m2b3ce6e75f" x="187.866538" y="76.762954" style="fill: #0000ff; stroke: #0000ff"/>
     <use xlink:href="#m2b3ce6e75f" x="191.437738" y="68.677415" style="fill: #0000ff; stroke: #0000ff"/>
     <use xlink:href="#m2b3ce6e75f" x="195.008938" y="71.053806" style="fill: #0000ff; stroke: #0000ff"/>
     <use xlink:href="#m2b3ce6e75f" x="198.580138" y="60.469421" style="fill: #0000ff; stroke: #0000ff"/>
     <use xlink:href="#m2b3ce6e75f" x="202.151338" y="68.797619" style="fill: #0000ff; stroke: #0000ff"/>
     <use xlink:href="#m2b3ce6e75f" x="205.722538" y="65.318869" style="fill: #0000ff; stroke: #0000ff"/>
     <use xlink:href="#m2b3ce6e75f" x="209.293738" y="67.764523" style="fill: #0000ff; stroke: #0000ff"/>
     <use xlink:href="#m2b3ce6e75f" x="212.864938" y="98.589069" style="fill: #0000ff; stroke: #0000ff"/>
     <use xlink:href="#m2b3ce6e75f" x="216.436138" y="78.021774" style="fill: #0000ff; stroke: #0000ff"/>
     <use xlink:href="#m2b3ce6e75f" x="220.007338" y="99.730546" style="fill: #0000ff; stroke: #0000ff"/>
     <use xlink:href="#m2b3ce6e75f" x="223.578538" y="96.787308" style="fill: #0000ff; stroke: #0000ff"/>
     <use xlink:href="#m2b3ce6e75f" x="227.149738" y="85.558195" style="fill: #0000ff; stroke: #0000ff"/>
     <use xlink:href="#m2b3ce6e75f" x="230.720938" y="89.710433" style="fill: #0000ff; stroke: #0000ff"/>
     <use xlink:href="#m2b3ce6e75f" x="234.292138" y="93.053184" style="fill: #0000ff; stroke: #0000ff"/>
     <use xlink:href="#m2b3ce6e75f" x="237.863338" y="83.846575" style="fill: #0000ff; stroke: #0000ff"/>
     <use xlink:href="#m2b3ce6e75f" x="241.434538" y="100.748243" style="fill: #0000ff; stroke: #0000ff"/>
     <use xlink:href="#m2b3ce6e75f" x="245.005738" y="89.473592" style="fill: #0000ff; stroke: #0000ff"/>
     <use xlink:href="#m2b3ce6e75f" x="248.576938" y="120.184446" style="fill: #0000ff; stroke: #0000ff"/>
     <use xlink:href="#m2b3ce6e75f" x="252.148138" y="96.729963" style="fill: #0000ff; stroke: #0000ff"/>
     <use xlink:href="#m2b3ce6e75f" x="255.719338" y="118.835684" style="fill: #0000ff; stroke: #0000ff"/>
     <use xlink:href="#m2b3ce6e75f" x="259.290538" y="113.636601" style="fill: #0000ff; stroke: #0000ff"/>
     <use xlink:href="#m2b3ce6e75f" x="262.861738" y="124.108566" style="fill: #0000ff; stroke: #0000ff"/>
     <use xlink:href="#m2b3ce6e75f" x="266.432938" y="138.374541" style="fill: #0000ff; stroke: #0000ff"/>
     <use xlink:href="#m2b3ce6e75f" x="270.004138" y="122.31046" style="fill: #0000ff; stroke: #0000ff"/>
     <use xlink:href="#m2b3ce6e75f" x="273.575338" y="130.927098" style="fill: #0000ff; stroke: #0000ff"/>
     <use xlink:href="#m2b3ce6e75f" x="277.146538" y="140.424172" style="fill: #0000ff; stroke: #0000ff"/>
     <use xlink:href="#m2b3ce6e75f" x="280.717738" y="146.613242" style="fill: #0000ff; stroke: #0000ff"/>
     <use xlink:href="#m2b3ce6e75f" x="284.288938" y="150.029956" style="fill: #0000ff; stroke: #0000ff"/>
     <use xlink:href="#m2b3ce6e75f" x="287.860138" y="150.056781" style="fill: #0000ff; stroke: #0000ff"/>
     <use xlink:href="#m2b3ce6e75f" x="291.431338" y="163.779014" style="fill: #0000ff; stroke: #0000ff"/>
     <use xlink:href="#m2b3ce6e75f" x="295.002538" y="147.443952" style="fill: #0000ff; stroke: #0000ff"/>
     <use xlink:href="#m2b3ce6e75f" x="298.573738" y="181.821444" style="fill: #0000ff; stroke: #0000ff"/>
     <use xlink:href="#m2b3ce6e75f" x="302.144938" y="172.285203" style="fill: #0000ff; stroke: #0000ff"/>
     <use xlink:href="#m2b3ce6e75f" x="305.716138" y="181.703556" style="fill: #0000ff; stroke: #0000ff"/>
     <use xlink:href="#m2b3ce6e75f" x="309.287338" y="183.36015" style="fill: #0000ff; stroke: #0000ff"/>
     <use xlink:href="#m2b3ce6e75f" x="312.858538" y="193.69253" style="fill: #0000ff; stroke: #0000ff"/>
     <use xlink:href="#m2b3ce6e75f" x="316.429738" y="187.129407" style="fill: #0000ff; stroke: #0000ff"/>
     <use xlink:href="#m2b3ce6e75f" x="320.000938" y="198.945682" style="fill: #0000ff; stroke: #0000ff"/>
     <use xlink:href="#m2b3ce6e75f" x="323.572138" y="181.984192" style="fill: #0000ff; stroke: #0000ff"/>
     <use xlink:href="#m2b3ce6e75f" x="327.143338" y="183.445643" style="fill: #0000ff; stroke: #0000ff"/>
     <use xlink:href="#m2b3ce6e75f" x="330.714538" y="192.302126" style="fill: #0000ff; stroke: #0000ff"/>
     <use xlink:href="#m2b3ce6e75f" x="334.285738" y="212.530052" style="fill: #0000ff; stroke: #0000ff"/>
     <use xlink:href="#m2b3ce6e75f" x="337.856938" y="198.902758" style="fill: #0000ff; stroke: #0000ff"/>
     <use xlink:href="#m2b3ce6e75f" x="341.428138" y="202.073571" style="fill: #0000ff; stroke: #0000ff"/>
     <use xlink:href="#m2b3ce6e75f" x="344.999338" y="211.329058" style="fill: #0000ff; stroke: #0000ff"/>
     <use xlink:href="#m2b3ce6e75f" x="348.570538" y="209.964598" style="fill: #0000ff; stroke: #0000ff"/>
     <use xlink:href="#m2b3ce6e75f" x="352.141738" y="230.231229" style="fill: #0000ff; stroke: #0000ff"/>
     <use xlink:href="#m2b3ce6e75f" x="355.712938" y="236.564163" style="fill: #0000ff; stroke: #0000ff"/>
     <use xlink:href="#m2b3ce6e75f" x="359.284138" y="207.811737" style="fill: #0000ff; stroke: #0000ff"/>
     <use xlink:href="#m2b3ce6e75f" x="362.855338" y="233.439446" style="fill: #0000ff; stroke: #0000ff"/>
     <use xlink:href="#m2b3ce6e75f" x="366.426538" y="222.728091" style="fill: #0000ff; stroke: #0000ff"/>
     <use xlink:href="#m2b3ce6e75f" x="369.997738" y="235.050747" style="fill: #0000ff; stroke: #0000ff"/>
     <use xlink:href="#m2b3ce6e75f" x="373.568938" y="234.365316" style="fill: #0000ff; stroke: #0000ff"/>
     <use xlink:href="#m2b3ce6e75f" x="377.140138" y="242.153775" style="fill: #0000ff; stroke: #0000ff"/>
     <use xlink:href="#m2b3ce6e75f" x="380.711338" y="243.135787" style="fill: #0000ff; stroke: #0000ff"/>
     <use xlink:href="#m2b3ce6e75f" x="384.282538" y="235.255692" style="fill: #0000ff; stroke: #0000ff"/>
     <use xlink:href="#m2b3ce6e75f" x="387.853738" y="243.833235" style="fill: #0000ff; stroke: #0000ff"/>
     <use xlink:href="#m2b3ce6e75f" x="391.424938" y="236.736003" style="fill: #0000ff; stroke: #0000ff"/>
     <use xlink:href="#m2b3ce6e75f" x="394.996138" y="239.202633" style="fill: #0000ff; stroke: #0000ff"/>
     <use xlink:href="#m2b3ce6e75f" x="398.567338" y="247.338218" style="fill: #0000ff; stroke: #0000ff"/>
     <use xlink:href="#m2b3ce6e75f" x="402.138538" y="225.928769" style="fill: #0000ff; stroke: #0000ff"/>
     <use xlink:href="#m2b3ce6e75f" x="405.709738" y="255.191144" style="fill: #0000ff; stroke: #0000ff"/>
     <use xlink:href="#m2b3ce6e75f" x="409.280938" y="257.106582" style="fill: #0000ff; stroke: #0000ff"/>
    </g>
   </g>
   <g id="matplotlib.axis_1">
    <g id="xtick_1">
     <g id="line2d_1">
      <path d="M 52.160938 288.430125 
L 52.160938 22.318125 
" clip-path="url(#p8bb4b5c353)" style="fill: none; stroke: #b0b0b0; stroke-width: 0.8; stroke-linecap: square"/>
     </g>
     <g id="line2d_2">
      <defs>
       <path id="mf72fee5bc5" d="M 0 0 
L 0 3.5 
" style="stroke: #000000; stroke-width: 0.8"/>
      </defs>
      <g>
       <use xlink:href="#mf72fee5bc5" x="52.160938" y="288.430125" style="stroke: #000000; stroke-width: 0.8"/>
      </g>
     </g>
     <g id="text_1">
      <!-- 0.0 -->
      <g transform="translate(44.209375 303.028562)scale(0.1 -0.1)">
       <defs>
        <path id="DejaVuSans-30" d="M 2034 4250 
Q 1547 4250 1301 3770 
Q 1056 3291 1056 2328 
Q 1056 1369 1301 889 
Q 1547 409 2034 409 
Q 2525 409 2770 889 
Q 3016 1369 3016 2328 
Q 3016 3291 2770 3770 
Q 2525 4250 2034 4250 
z
M 2034 4750 
Q 2819 4750 3233 4129 
Q 3647 3509 3647 2328 
Q 3647 1150 3233 529 
Q 2819 -91 2034 -91 
Q 1250 -91 836 529 
Q 422 1150 422 2328 
Q 422 3509 836 4129 
Q 1250 4750 2034 4750 
z
" transform="scale(0.015625)"/>
        <path id="DejaVuSans-2e" d="M 684 794 
L 1344 794 
L 1344 0 
L 684 0 
L 684 794 
z
" transform="scale(0.015625)"/>
       </defs>
       <use xlink:href="#DejaVuSans-30"/>
       <use xlink:href="#DejaVuSans-2e" x="63.623047"/>
       <use xlink:href="#DejaVuSans-30" x="95.410156"/>
      </g>
     </g>
    </g>
    <g id="xtick_2">
     <g id="line2d_3">
      <path d="M 123.584938 288.430125 
L 123.584938 22.318125 
" clip-path="url(#p8bb4b5c353)" style="fill: none; stroke: #b0b0b0; stroke-width: 0.8; stroke-linecap: square"/>
     </g>
     <g id="line2d_4">
      <g>
       <use xlink:href="#mf72fee5bc5" x="123.584938" y="288.430125" style="stroke: #000000; stroke-width: 0.8"/>
      </g>
     </g>
     <g id="text_2">
      <!-- 0.2 -->
      <g transform="translate(115.633375 303.028562)scale(0.1 -0.1)">
       <defs>
        <path id="DejaVuSans-32" d="M 1228 531 
L 3431 531 
L 3431 0 
L 469 0 
L 469 531 
Q 828 903 1448 1529 
Q 2069 2156 2228 2338 
Q 2531 2678 2651 2914 
Q 2772 3150 2772 3378 
Q 2772 3750 2511 3984 
Q 2250 4219 1831 4219 
Q 1534 4219 1204 4116 
Q 875 4013 500 3803 
L 500 4441 
Q 881 4594 1212 4672 
Q 1544 4750 1819 4750 
Q 2544 4750 2975 4387 
Q 3406 4025 3406 3419 
Q 3406 3131 3298 2873 
Q 3191 2616 2906 2266 
Q 2828 2175 2409 1742 
Q 1991 1309 1228 531 
z
" transform="scale(0.015625)"/>
       </defs>
       <use xlink:href="#DejaVuSans-30"/>
       <use xlink:href="#DejaVuSans-2e" x="63.623047"/>
       <use xlink:href="#DejaVuSans-32" x="95.410156"/>
      </g>
     </g>
    </g>
    <g id="xtick_3">
     <g id="line2d_5">
      <path d="M 195.008938 288.430125 
L 195.008938 22.318125 
" clip-path="url(#p8bb4b5c353)" style="fill: none; stroke: #b0b0b0; stroke-width: 0.8; stroke-linecap: square"/>
     </g>
     <g id="line2d_6">
      <g>
       <use xlink:href="#mf72fee5bc5" x="195.008938" y="288.430125" style="stroke: #000000; stroke-width: 0.8"/>
      </g>
     </g>
     <g id="text_3">
      <!-- 0.4 -->
      <g transform="translate(187.057375 303.028562)scale(0.1 -0.1)">
       <defs>
        <path id="DejaVuSans-34" d="M 2419 4116 
L 825 1625 
L 2419 1625 
L 2419 4116 
z
M 2253 4666 
L 3047 4666 
L 3047 1625 
L 3713 1625 
L 3713 1100 
L 3047 1100 
L 3047 0 
L 2419 0 
L 2419 1100 
L 313 1100 
L 313 1709 
L 2253 4666 
z
" transform="scale(0.015625)"/>
       </defs>
       <use xlink:href="#DejaVuSans-30"/>
       <use xlink:href="#DejaVuSans-2e" x="63.623047"/>
       <use xlink:href="#DejaVuSans-34" x="95.410156"/>
      </g>
     </g>
    </g>
    <g id="xtick_4">
     <g id="line2d_7">
      <path d="M 266.432938 288.430125 
L 266.432938 22.318125 
" clip-path="url(#p8bb4b5c353)" style="fill: none; stroke: #b0b0b0; stroke-width: 0.8; stroke-linecap: square"/>
     </g>
     <g id="line2d_8">
      <g>
       <use xlink:href="#mf72fee5bc5" x="266.432938" y="288.430125" style="stroke: #000000; stroke-width: 0.8"/>
      </g>
     </g>
     <g id="text_4">
      <!-- 0.6 -->
      <g transform="translate(258.481375 303.028562)scale(0.1 -0.1)">
       <defs>
        <path id="DejaVuSans-36" d="M 2113 2584 
Q 1688 2584 1439 2293 
Q 1191 2003 1191 1497 
Q 1191 994 1439 701 
Q 1688 409 2113 409 
Q 2538 409 2786 701 
Q 3034 994 3034 1497 
Q 3034 2003 2786 2293 
Q 2538 2584 2113 2584 
z
M 3366 4563 
L 3366 3988 
Q 3128 4100 2886 4159 
Q 2644 4219 2406 4219 
Q 1781 4219 1451 3797 
Q 1122 3375 1075 2522 
Q 1259 2794 1537 2939 
Q 1816 3084 2150 3084 
Q 2853 3084 3261 2657 
Q 3669 2231 3669 1497 
Q 3669 778 3244 343 
Q 2819 -91 2113 -91 
Q 1303 -91 875 529 
Q 447 1150 447 2328 
Q 447 3434 972 4092 
Q 1497 4750 2381 4750 
Q 2619 4750 2861 4703 
Q 3103 4656 3366 4563 
z
" transform="scale(0.015625)"/>
       </defs>
       <use xlink:href="#DejaVuSans-30"/>
       <use xlink:href="#DejaVuSans-2e" x="63.623047"/>
       <use xlink:href="#DejaVuSans-36" x="95.410156"/>
      </g>
     </g>
    </g>
    <g id="xtick_5">
     <g id="line2d_9">
      <path d="M 337.856938 288.430125 
L 337.856938 22.318125 
" clip-path="url(#p8bb4b5c353)" style="fill: none; stroke: #b0b0b0; stroke-width: 0.8; stroke-linecap: square"/>
     </g>
     <g id="line2d_10">
      <g>
       <use xlink:href="#mf72fee5bc5" x="337.856938" y="288.430125" style="stroke: #000000; stroke-width: 0.8"/>
      </g>
     </g>
     <g id="text_5">
      <!-- 0.8 -->
      <g transform="translate(329.905375 303.028562)scale(0.1 -0.1)">
       <defs>
        <path id="DejaVuSans-38" d="M 2034 2216 
Q 1584 2216 1326 1975 
Q 1069 1734 1069 1313 
Q 1069 891 1326 650 
Q 1584 409 2034 409 
Q 2484 409 2743 651 
Q 3003 894 3003 1313 
Q 3003 1734 2745 1975 
Q 2488 2216 2034 2216 
z
M 1403 2484 
Q 997 2584 770 2862 
Q 544 3141 544 3541 
Q 544 4100 942 4425 
Q 1341 4750 2034 4750 
Q 2731 4750 3128 4425 
Q 3525 4100 3525 3541 
Q 3525 3141 3298 2862 
Q 3072 2584 2669 2484 
Q 3125 2378 3379 2068 
Q 3634 1759 3634 1313 
Q 3634 634 3220 271 
Q 2806 -91 2034 -91 
Q 1263 -91 848 271 
Q 434 634 434 1313 
Q 434 1759 690 2068 
Q 947 2378 1403 2484 
z
M 1172 3481 
Q 1172 3119 1398 2916 
Q 1625 2713 2034 2713 
Q 2441 2713 2670 2916 
Q 2900 3119 2900 3481 
Q 2900 3844 2670 4047 
Q 2441 4250 2034 4250 
Q 1625 4250 1398 4047 
Q 1172 3844 1172 3481 
z
" transform="scale(0.015625)"/>
       </defs>
       <use xlink:href="#DejaVuSans-30"/>
       <use xlink:href="#DejaVuSans-2e" x="63.623047"/>
       <use xlink:href="#DejaVuSans-38" x="95.410156"/>
      </g>
     </g>
    </g>
    <g id="xtick_6">
     <g id="line2d_11">
      <path d="M 409.280938 288.430125 
L 409.280938 22.318125 
" clip-path="url(#p8bb4b5c353)" style="fill: none; stroke: #b0b0b0; stroke-width: 0.8; stroke-linecap: square"/>
     </g>
     <g id="line2d_12">
      <g>
       <use xlink:href="#mf72fee5bc5" x="409.280938" y="288.430125" style="stroke: #000000; stroke-width: 0.8"/>
      </g>
     </g>
     <g id="text_6">
      <!-- 1.0 -->
      <g transform="translate(401.329375 303.028562)scale(0.1 -0.1)">
       <defs>
        <path id="DejaVuSans-31" d="M 794 531 
L 1825 531 
L 1825 4091 
L 703 3866 
L 703 4441 
L 1819 4666 
L 2450 4666 
L 2450 531 
L 3481 531 
L 3481 0 
L 794 0 
L 794 531 
z
" transform="scale(0.015625)"/>
       </defs>
       <use xlink:href="#DejaVuSans-31"/>
       <use xlink:href="#DejaVuSans-2e" x="63.623047"/>
       <use xlink:href="#DejaVuSans-30" x="95.410156"/>
      </g>
     </g>
    </g>
    <g id="text_7">
     <!-- x -->
     <g transform="translate(227.761563 316.706687)scale(0.1 -0.1)">
      <defs>
       <path id="DejaVuSans-78" d="M 3513 3500 
L 2247 1797 
L 3578 0 
L 2900 0 
L 1881 1375 
L 863 0 
L 184 0 
L 1544 1831 
L 300 3500 
L 978 3500 
L 1906 2253 
L 2834 3500 
L 3513 3500 
z
" transform="scale(0.015625)"/>
      </defs>
      <use xlink:href="#DejaVuSans-78"/>
     </g>
    </g>
   </g>
   <g id="matplotlib.axis_2">
    <g id="ytick_1">
     <g id="line2d_13">
      <path d="M 52.160938 276.334125 
L 409.280938 276.334125 
" clip-path="url(#p8bb4b5c353)" style="fill: none; stroke: #b0b0b0; stroke-width: 0.8; stroke-linecap: square"/>
     </g>
     <g id="line2d_14">
      <defs>
       <path id="m3ae803c156" d="M 0 0 
L -3.5 0 
" style="stroke: #000000; stroke-width: 0.8"/>
      </defs>
      <g>
       <use xlink:href="#m3ae803c156" x="52.160938" y="276.334125" style="stroke: #000000; stroke-width: 0.8"/>
      </g>
     </g>
     <g id="text_8">
      <!-- −0.2 -->
      <g transform="translate(20.878125 280.133344)scale(0.1 -0.1)">
       <defs>
        <path id="DejaVuSans-2212" d="M 678 2272 
L 4684 2272 
L 4684 1741 
L 678 1741 
L 678 2272 
z
" transform="scale(0.015625)"/>
       </defs>
       <use xlink:href="#DejaVuSans-2212"/>
       <use xlink:href="#DejaVuSans-30" x="83.789062"/>
       <use xlink:href="#DejaVuSans-2e" x="147.412109"/>
       <use xlink:href="#DejaVuSans-32" x="179.199219"/>
      </g>
     </g>
    </g>
    <g id="ytick_2">
     <g id="line2d_15">
      <path d="M 52.160938 241.757375 
L 409.280938 241.757375 
" clip-path="url(#p8bb4b5c353)" style="fill: none; stroke: #b0b0b0; stroke-width: 0.8; stroke-linecap: square"/>
     </g>
     <g id="line2d_16">
      <g>
       <use xlink:href="#m3ae803c156" x="52.160938" y="241.757375" style="stroke: #000000; stroke-width: 0.8"/>
      </g>
     </g>
     <g id="text_9">
      <!-- 0.0 -->
      <g transform="translate(29.257812 245.556593)scale(0.1 -0.1)">
       <use xlink:href="#DejaVuSans-30"/>
       <use xlink:href="#DejaVuSans-2e" x="63.623047"/>
       <use xlink:href="#DejaVuSans-30" x="95.410156"/>
      </g>
     </g>
    </g>
    <g id="ytick_3">
     <g id="line2d_17">
      <path d="M 52.160938 207.180624 
L 409.280938 207.180624 
" clip-path="url(#p8bb4b5c353)" style="fill: none; stroke: #b0b0b0; stroke-width: 0.8; stroke-linecap: square"/>
     </g>
     <g id="line2d_18">
      <g>
       <use xlink:href="#m3ae803c156" x="52.160938" y="207.180624" style="stroke: #000000; stroke-width: 0.8"/>
      </g>
     </g>
     <g id="text_10">
      <!-- 0.2 -->
      <g transform="translate(29.257812 210.979843)scale(0.1 -0.1)">
       <use xlink:href="#DejaVuSans-30"/>
       <use xlink:href="#DejaVuSans-2e" x="63.623047"/>
       <use xlink:href="#DejaVuSans-32" x="95.410156"/>
      </g>
     </g>
    </g>
    <g id="ytick_4">
     <g id="line2d_19">
      <path d="M 52.160938 172.603874 
L 409.280938 172.603874 
" clip-path="url(#p8bb4b5c353)" style="fill: none; stroke: #b0b0b0; stroke-width: 0.8; stroke-linecap: square"/>
     </g>
     <g id="line2d_20">
      <g>
       <use xlink:href="#m3ae803c156" x="52.160938" y="172.603874" style="stroke: #000000; stroke-width: 0.8"/>
      </g>
     </g>
     <g id="text_11">
      <!-- 0.4 -->
      <g transform="translate(29.257812 176.403093)scale(0.1 -0.1)">
       <use xlink:href="#DejaVuSans-30"/>
       <use xlink:href="#DejaVuSans-2e" x="63.623047"/>
       <use xlink:href="#DejaVuSans-34" x="95.410156"/>
      </g>
     </g>
    </g>
    <g id="ytick_5">
     <g id="line2d_21">
      <path d="M 52.160938 138.027123 
L 409.280938 138.027123 
" clip-path="url(#p8bb4b5c353)" style="fill: none; stroke: #b0b0b0; stroke-width: 0.8; stroke-linecap: square"/>
     </g>
     <g id="line2d_22">
      <g>
       <use xlink:href="#m3ae803c156" x="52.160938" y="138.027123" style="stroke: #000000; stroke-width: 0.8"/>
      </g>
     </g>
     <g id="text_12">
      <!-- 0.6 -->
      <g transform="translate(29.257812 141.826342)scale(0.1 -0.1)">
       <use xlink:href="#DejaVuSans-30"/>
       <use xlink:href="#DejaVuSans-2e" x="63.623047"/>
       <use xlink:href="#DejaVuSans-36" x="95.410156"/>
      </g>
     </g>
    </g>
    <g id="ytick_6">
     <g id="line2d_23">
      <path d="M 52.160938 103.450373 
L 409.280938 103.450373 
" clip-path="url(#p8bb4b5c353)" style="fill: none; stroke: #b0b0b0; stroke-width: 0.8; stroke-linecap: square"/>
     </g>
     <g id="line2d_24">
      <g>
       <use xlink:href="#m3ae803c156" x="52.160938" y="103.450373" style="stroke: #000000; stroke-width: 0.8"/>
      </g>
     </g>
     <g id="text_13">
      <!-- 0.8 -->
      <g transform="translate(29.257812 107.249592)scale(0.1 -0.1)">
       <use xlink:href="#DejaVuSans-30"/>
       <use xlink:href="#DejaVuSans-2e" x="63.623047"/>
       <use xlink:href="#DejaVuSans-38" x="95.410156"/>
      </g>
     </g>
    </g>
    <g id="ytick_7">
     <g id="line2d_25">
      <path d="M 52.160938 68.873623 
L 409.280938 68.873623 
" clip-path="url(#p8bb4b5c353)" style="fill: none; stroke: #b0b0b0; stroke-width: 0.8; stroke-linecap: square"/>
     </g>
     <g id="line2d_26">
      <g>
       <use xlink:href="#m3ae803c156" x="52.160938" y="68.873623" style="stroke: #000000; stroke-width: 0.8"/>
      </g>
     </g>
     <g id="text_14">
      <!-- 1.0 -->
      <g transform="translate(29.257812 72.672841)scale(0.1 -0.1)">
       <use xlink:href="#DejaVuSans-31"/>
       <use xlink:href="#DejaVuSans-2e" x="63.623047"/>
       <use xlink:href="#DejaVuSans-30" x="95.410156"/>
      </g>
     </g>
    </g>
    <g id="ytick_8">
     <g id="line2d_27">
      <path d="M 52.160938 34.296872 
L 409.280938 34.296872 
" clip-path="url(#p8bb4b5c353)" style="fill: none; stroke: #b0b0b0; stroke-width: 0.8; stroke-linecap: square"/>
     </g>
     <g id="line2d_28">
      <g>
       <use xlink:href="#m3ae803c156" x="52.160938" y="34.296872" style="stroke: #000000; stroke-width: 0.8"/>
      </g>
     </g>
     <g id="text_15">
      <!-- 1.2 -->
      <g transform="translate(29.257812 38.096091)scale(0.1 -0.1)">
       <use xlink:href="#DejaVuSans-31"/>
       <use xlink:href="#DejaVuSans-2e" x="63.623047"/>
       <use xlink:href="#DejaVuSans-32" x="95.410156"/>
      </g>
     </g>
    </g>
    <g id="text_16">
     <!-- output -->
     <g transform="translate(14.798437 171.865531)rotate(-90)scale(0.1 -0.1)">
      <defs>
       <path id="DejaVuSans-6f" d="M 1959 3097 
Q 1497 3097 1228 2736 
Q 959 2375 959 1747 
Q 959 1119 1226 758 
Q 1494 397 1959 397 
Q 2419 397 2687 759 
Q 2956 1122 2956 1747 
Q 2956 2369 2687 2733 
Q 2419 3097 1959 3097 
z
M 1959 3584 
Q 2709 3584 3137 3096 
Q 3566 2609 3566 1747 
Q 3566 888 3137 398 
Q 2709 -91 1959 -91 
Q 1206 -91 779 398 
Q 353 888 353 1747 
Q 353 2609 779 3096 
Q 1206 3584 1959 3584 
z
" transform="scale(0.015625)"/>
       <path id="DejaVuSans-75" d="M 544 1381 
L 544 3500 
L 1119 3500 
L 1119 1403 
Q 1119 906 1312 657 
Q 1506 409 1894 409 
Q 2359 409 2629 706 
Q 2900 1003 2900 1516 
L 2900 3500 
L 3475 3500 
L 3475 0 
L 2900 0 
L 2900 538 
Q 2691 219 2414 64 
Q 2138 -91 1772 -91 
Q 1169 -91 856 284 
Q 544 659 544 1381 
z
M 1991 3584 
L 1991 3584 
z
" transform="scale(0.015625)"/>
       <path id="DejaVuSans-74" d="M 1172 4494 
L 1172 3500 
L 2356 3500 
L 2356 3053 
L 1172 3053 
L 1172 1153 
Q 1172 725 1289 603 
Q 1406 481 1766 481 
L 2356 481 
L 2356 0 
L 1766 0 
Q 1100 0 847 248 
Q 594 497 594 1153 
L 594 3053 
L 172 3053 
L 172 3500 
L 594 3500 
L 594 4494 
L 1172 4494 
z
" transform="scale(0.015625)"/>
       <path id="DejaVuSans-70" d="M 1159 525 
L 1159 -1331 
L 581 -1331 
L 581 3500 
L 1159 3500 
L 1159 2969 
Q 1341 3281 1617 3432 
Q 1894 3584 2278 3584 
Q 2916 3584 3314 3078 
Q 3713 2572 3713 1747 
Q 3713 922 3314 415 
Q 2916 -91 2278 -91 
Q 1894 -91 1617 61 
Q 1341 213 1159 525 
z
M 3116 1747 
Q 3116 2381 2855 2742 
Q 2594 3103 2138 3103 
Q 1681 3103 1420 2742 
Q 1159 2381 1159 1747 
Q 1159 1113 1420 752 
Q 1681 391 2138 391 
Q 2594 391 2855 752 
Q 3116 1113 3116 1747 
z
" transform="scale(0.015625)"/>
      </defs>
      <use xlink:href="#DejaVuSans-6f"/>
      <use xlink:href="#DejaVuSans-75" x="61.181641"/>
      <use xlink:href="#DejaVuSans-74" x="124.560547"/>
      <use xlink:href="#DejaVuSans-70" x="163.769531"/>
      <use xlink:href="#DejaVuSans-75" x="227.246094"/>
      <use xlink:href="#DejaVuSans-74" x="290.625"/>
     </g>
    </g>
   </g>
   <g id="line2d_29">
    <path d="M 52.160938 155.315499 
L 55.732138 151.243529 
L 59.303338 147.1806 
L 62.874538 143.135732 
L 66.445738 139.117906 
L 70.016938 135.136043 
L 73.588138 131.198984 
L 77.159338 127.315469 
L 80.730538 123.494122 
L 84.301738 119.743426 
L 87.872938 116.071708 
L 91.444138 112.487122 
L 95.015338 108.997625 
L 98.586538 105.610966 
L 102.157738 102.334663 
L 105.728938 99.175991 
L 109.300138 96.141963 
L 112.871338 93.239314 
L 116.442538 90.474491 
L 120.013738 87.85363 
L 123.584938 85.382552 
L 127.156138 83.066742 
L 130.727338 80.911343 
L 134.298538 78.92114 
L 137.869738 77.100551 
L 141.440938 75.453619 
L 145.012138 73.984 
L 148.583338 72.694957 
L 152.154538 71.589353 
L 155.725738 70.669642 
L 159.296938 69.937866 
L 162.868138 69.395649 
L 166.439338 69.044196 
L 170.010538 68.884287 
L 173.581738 68.916277 
L 177.152938 69.140094 
L 180.724138 69.555243 
L 184.295338 70.1608 
L 187.866538 70.955423 
L 191.437738 71.937346 
L 195.008938 73.104389 
L 198.580138 74.453962 
L 202.151338 75.983067 
L 205.722538 77.68831 
L 209.293738 79.565905 
L 212.864938 81.611683 
L 216.436138 83.821102 
L 220.007338 86.189257 
L 223.578538 88.710888 
L 227.149738 91.380399 
L 230.720938 94.191862 
L 234.292138 97.139034 
L 237.863338 100.215373 
L 241.434538 103.414048 
L 245.005738 106.727957 
L 248.576938 110.149743 
L 252.148138 113.671807 
L 255.719338 117.286331 
L 259.290538 120.98529 
L 262.861738 124.76047 
L 266.432938 128.60349 
L 270.004138 132.505817 
L 273.575338 136.458788 
L 277.146538 140.453625 
L 280.717738 144.481459 
L 284.288938 148.533347 
L 287.860138 152.600294 
L 291.431338 156.673269 
L 295.002538 160.743229 
L 298.573738 164.801138 
L 302.144938 168.837987 
L 305.716138 172.844813 
L 309.287338 176.812719 
L 312.858538 180.732896 
L 316.429738 184.59664 
L 320.000938 188.395372 
L 323.572138 192.120659 
L 327.143338 195.76423 
L 330.714538 199.317994 
L 334.285738 202.774061 
L 337.856938 206.124759 
L 341.428138 209.362647 
L 344.999338 212.480537 
L 348.570538 215.471506 
L 352.141738 218.328914 
L 355.712938 221.046417 
L 359.284138 223.61798 
L 362.855338 226.037895 
L 366.426538 228.300788 
L 369.997738 230.401636 
L 373.568938 232.335774 
L 377.140138 234.098908 
L 380.711338 235.687122 
L 384.282538 237.096892 
L 387.853738 238.325086 
L 391.424938 239.368979 
L 394.996138 240.226251 
L 398.567338 240.895001 
L 402.138538 241.373743 
L 405.709738 241.661413 
L 409.280938 241.757375 
" clip-path="url(#p8bb4b5c353)" style="fill: none; stroke: #000000; stroke-width: 1.5; stroke-linecap: square"/>
   </g>
   <g id="line2d_30">
    <path d="M 52.160938 155.315499 
L 55.732138 143.171747 
L 59.303338 131.483083 
L 62.874538 120.679929 
L 66.445738 111.144728 
L 70.016938 103.191291 
L 73.588138 97.047931 
L 77.159338 92.845308 
L 80.730538 90.609678 
L 84.301738 90.261899 
L 87.872938 91.622254 
L 91.444138 94.420819 
L 95.015338 98.312822 
L 98.586538 102.898105 
L 102.157738 107.743659 
L 105.728938 112.407941 
L 109.300138 116.465667 
L 112.871338 119.531682 
L 116.442538 121.282601 
L 120.013738 121.475022 
L 123.584938 119.959302 
L 127.156138 116.688134 
L 130.727338 111.719453 
L 134.298538 105.213507 
L 137.869738 97.424255 
L 141.440938 88.685568 
L 145.012138 79.392995 
L 148.583338 69.982097 
L 152.154538 60.90455 
L 155.725738 52.603339 
L 159.296938 45.488411 
L 162.868138 39.914123 
L 166.439338 36.159752 
L 170.010538 34.414125 
L 173.581738 34.765223 
L 177.152938 37.195342 
L 180.724138 41.582064 
L 184.295338 47.704997 
L 187.866538 55.257907 
L 191.437738 63.865564 
L 195.008938 73.104389 
L 198.580138 82.525744 
L 202.151338 91.680583 
L 205.722538 100.144113 
L 209.293738 107.539084 
L 212.864938 113.556435 
L 216.436138 117.972155 
L 220.007338 120.659418 
L 223.578538 121.595332 
L 227.149738 120.861925 
L 230.720938 118.641317 
L 234.292138 115.205337 
L 237.863338 110.900177 
L 241.434538 106.126909 
L 245.005738 101.318962 
L 248.576938 96.917793 
L 252.148138 93.348103 
L 255.719338 90.993964 
L 259.290538 90.17718 
L 262.861738 91.139078 
L 266.432938 94.02674 
L 270.004138 98.884425 
L 273.575338 105.650677 
L 277.146538 114.161257 
L 280.717738 124.157755 
L 284.288938 135.301398 
L 287.860138 147.191298 
L 291.431338 159.386129 
L 295.002538 171.428032 
L 298.573738 182.867441 
L 302.144938 193.287442 
L 305.716138 202.326339 
L 309.287338 209.697163 
L 312.858538 215.203058 
L 316.429738 218.747693 
L 320.000938 220.340124 
L 323.572138 220.093838 
L 327.143338 218.220033 
L 330.714538 215.01551 
L 334.285738 210.845843 
L 337.856938 206.124759 
L 341.428138 201.290865 
L 344.999338 196.783021 
L 348.570538 193.015703 
L 352.141738 190.355736 
L 355.712938 189.101665 
L 359.284138 189.466927 
L 362.855338 191.567733 
L 366.426538 195.416345 
L 369.997738 200.92011 
L 373.568938 207.886319 
L 377.140138 216.032605 
L 380.711338 225.002319 
L 384.282538 234.384031 
L 387.853738 243.734082 
L 391.424938 252.600928 
L 394.996138 260.549955 
L 398.567338 267.187368 
L 402.138538 272.181853 
L 405.709738 275.282805 
L 409.280938 276.334125 
" clip-path="url(#p8bb4b5c353)" style="fill: none; stroke: #00ff00; stroke-width: 1.5; stroke-linecap: square"/>
   </g>
   <g id="patch_3">
    <path d="M 52.160938 288.430125 
L 52.160938 22.318125 
" style="fill: none; stroke: #000000; stroke-width: 0.8; stroke-linejoin: miter; stroke-linecap: square"/>
   </g>
   <g id="patch_4">
    <path d="M 409.280938 288.430125 
L 409.280938 22.318125 
" style="fill: none; stroke: #000000; stroke-width: 0.8; stroke-linejoin: miter; stroke-linecap: square"/>
   </g>
   <g id="patch_5">
    <path d="M 52.160938 288.430125 
L 409.280938 288.430125 
" style="fill: none; stroke: #000000; stroke-width: 0.8; stroke-linejoin: miter; stroke-linecap: square"/>
   </g>
   <g id="patch_6">
    <path d="M 52.160938 22.318125 
L 409.280938 22.318125 
" style="fill: none; stroke: #000000; stroke-width: 0.8; stroke-linejoin: miter; stroke-linecap: square"/>
   </g>
   <g id="text_17">
    <!-- The datasets -->
    <g transform="translate(191.844688 16.318125)scale(0.12 -0.12)">
     <defs>
      <path id="DejaVuSans-54" d="M -19 4666 
L 3928 4666 
L 3928 4134 
L 2272 4134 
L 2272 0 
L 1638 0 
L 1638 4134 
L -19 4134 
L -19 4666 
z
" transform="scale(0.015625)"/>
      <path id="DejaVuSans-68" d="M 3513 2113 
L 3513 0 
L 2938 0 
L 2938 2094 
Q 2938 2591 2744 2837 
Q 2550 3084 2163 3084 
Q 1697 3084 1428 2787 
Q 1159 2491 1159 1978 
L 1159 0 
L 581 0 
L 581 4863 
L 1159 4863 
L 1159 2956 
Q 1366 3272 1645 3428 
Q 1925 3584 2291 3584 
Q 2894 3584 3203 3211 
Q 3513 2838 3513 2113 
z
" transform="scale(0.015625)"/>
      <path id="DejaVuSans-65" d="M 3597 1894 
L 3597 1613 
L 953 1613 
Q 991 1019 1311 708 
Q 1631 397 2203 397 
Q 2534 397 2845 478 
Q 3156 559 3463 722 
L 3463 178 
Q 3153 47 2828 -22 
Q 2503 -91 2169 -91 
Q 1331 -91 842 396 
Q 353 884 353 1716 
Q 353 2575 817 3079 
Q 1281 3584 2069 3584 
Q 2775 3584 3186 3129 
Q 3597 2675 3597 1894 
z
M 3022 2063 
Q 3016 2534 2758 2815 
Q 2500 3097 2075 3097 
Q 1594 3097 1305 2825 
Q 1016 2553 972 2059 
L 3022 2063 
z
" transform="scale(0.015625)"/>
      <path id="DejaVuSans-20" transform="scale(0.015625)"/>
      <path id="DejaVuSans-64" d="M 2906 2969 
L 2906 4863 
L 3481 4863 
L 3481 0 
L 2906 0 
L 2906 525 
Q 2725 213 2448 61 
Q 2172 -91 1784 -91 
Q 1150 -91 751 415 
Q 353 922 353 1747 
Q 353 2572 751 3078 
Q 1150 3584 1784 3584 
Q 2172 3584 2448 3432 
Q 2725 3281 2906 2969 
z
M 947 1747 
Q 947 1113 1208 752 
Q 1469 391 1925 391 
Q 2381 391 2643 752 
Q 2906 1113 2906 1747 
Q 2906 2381 2643 2742 
Q 2381 3103 1925 3103 
Q 1469 3103 1208 2742 
Q 947 2381 947 1747 
z
" transform="scale(0.015625)"/>
      <path id="DejaVuSans-61" d="M 2194 1759 
Q 1497 1759 1228 1600 
Q 959 1441 959 1056 
Q 959 750 1161 570 
Q 1363 391 1709 391 
Q 2188 391 2477 730 
Q 2766 1069 2766 1631 
L 2766 1759 
L 2194 1759 
z
M 3341 1997 
L 3341 0 
L 2766 0 
L 2766 531 
Q 2569 213 2275 61 
Q 1981 -91 1556 -91 
Q 1019 -91 701 211 
Q 384 513 384 1019 
Q 384 1609 779 1909 
Q 1175 2209 1959 2209 
L 2766 2209 
L 2766 2266 
Q 2766 2663 2505 2880 
Q 2244 3097 1772 3097 
Q 1472 3097 1187 3025 
Q 903 2953 641 2809 
L 641 3341 
Q 956 3463 1253 3523 
Q 1550 3584 1831 3584 
Q 2591 3584 2966 3190 
Q 3341 2797 3341 1997 
z
" transform="scale(0.015625)"/>
      <path id="DejaVuSans-73" d="M 2834 3397 
L 2834 2853 
Q 2591 2978 2328 3040 
Q 2066 3103 1784 3103 
Q 1356 3103 1142 2972 
Q 928 2841 928 2578 
Q 928 2378 1081 2264 
Q 1234 2150 1697 2047 
L 1894 2003 
Q 2506 1872 2764 1633 
Q 3022 1394 3022 966 
Q 3022 478 2636 193 
Q 2250 -91 1575 -91 
Q 1294 -91 989 -36 
Q 684 19 347 128 
L 347 722 
Q 666 556 975 473 
Q 1284 391 1588 391 
Q 1994 391 2212 530 
Q 2431 669 2431 922 
Q 2431 1156 2273 1281 
Q 2116 1406 1581 1522 
L 1381 1569 
Q 847 1681 609 1914 
Q 372 2147 372 2553 
Q 372 3047 722 3315 
Q 1072 3584 1716 3584 
Q 2034 3584 2315 3537 
Q 2597 3491 2834 3397 
z
" transform="scale(0.015625)"/>
     </defs>
     <use xlink:href="#DejaVuSans-54"/>
     <use xlink:href="#DejaVuSans-68" x="61.083984"/>
     <use xlink:href="#DejaVuSans-65" x="124.462891"/>
     <use xlink:href="#DejaVuSans-20" x="185.986328"/>
     <use xlink:href="#DejaVuSans-64" x="217.773438"/>
     <use xlink:href="#DejaVuSans-61" x="281.25"/>
     <use xlink:href="#DejaVuSans-74" x="342.529297"/>
     <use xlink:href="#DejaVuSans-61" x="381.738281"/>
     <use xlink:href="#DejaVuSans-73" x="443.017578"/>
     <use xlink:href="#DejaVuSans-65" x="495.117188"/>
     <use xlink:href="#DejaVuSans-74" x="556.640625"/>
     <use xlink:href="#DejaVuSans-73" x="595.849609"/>
    </g>
   </g>
   <g id="legend_1">
    <g id="patch_7">
     <path d="M 319.6075 74.3525 
L 402.280938 74.3525 
Q 404.280938 74.3525 404.280938 72.3525 
L 404.280938 29.318125 
Q 404.280938 27.318125 402.280938 27.318125 
L 319.6075 27.318125 
Q 317.6075 27.318125 317.6075 29.318125 
L 317.6075 72.3525 
Q 317.6075 74.3525 319.6075 74.3525 
z
" style="fill: #ffffff; opacity: 0.8; stroke: #cccccc; stroke-linejoin: miter"/>
    </g>
    <g id="line2d_31">
     <path d="M 321.6075 35.416562 
L 331.6075 35.416562 
L 341.6075 35.416562 
" style="fill: none; stroke: #000000; stroke-width: 1.5; stroke-linecap: square"/>
    </g>
    <g id="text_18">
     <!-- smooth -->
     <g transform="translate(349.6075 38.916562)scale(0.1 -0.1)">
      <defs>
       <path id="DejaVuSans-6d" d="M 3328 2828 
Q 3544 3216 3844 3400 
Q 4144 3584 4550 3584 
Q 5097 3584 5394 3201 
Q 5691 2819 5691 2113 
L 5691 0 
L 5113 0 
L 5113 2094 
Q 5113 2597 4934 2840 
Q 4756 3084 4391 3084 
Q 3944 3084 3684 2787 
Q 3425 2491 3425 1978 
L 3425 0 
L 2847 0 
L 2847 2094 
Q 2847 2600 2669 2842 
Q 2491 3084 2119 3084 
Q 1678 3084 1418 2786 
Q 1159 2488 1159 1978 
L 1159 0 
L 581 0 
L 581 3500 
L 1159 3500 
L 1159 2956 
Q 1356 3278 1631 3431 
Q 1906 3584 2284 3584 
Q 2666 3584 2933 3390 
Q 3200 3197 3328 2828 
z
" transform="scale(0.015625)"/>
      </defs>
      <use xlink:href="#DejaVuSans-73"/>
      <use xlink:href="#DejaVuSans-6d" x="52.099609"/>
      <use xlink:href="#DejaVuSans-6f" x="149.511719"/>
      <use xlink:href="#DejaVuSans-6f" x="210.693359"/>
      <use xlink:href="#DejaVuSans-74" x="271.875"/>
      <use xlink:href="#DejaVuSans-68" x="311.083984"/>
     </g>
    </g>
    <g id="line2d_32">
     <path d="M 321.6075 50.094688 
L 331.6075 50.094688 
L 341.6075 50.094688 
" style="fill: none; stroke: #00ff00; stroke-width: 1.5; stroke-linecap: square"/>
    </g>
    <g id="text_19">
     <!-- oscillating -->
     <g transform="translate(349.6075 53.594688)scale(0.1 -0.1)">
      <defs>
       <path id="DejaVuSans-63" d="M 3122 3366 
L 3122 2828 
Q 2878 2963 2633 3030 
Q 2388 3097 2138 3097 
Q 1578 3097 1268 2742 
Q 959 2388 959 1747 
Q 959 1106 1268 751 
Q 1578 397 2138 397 
Q 2388 397 2633 464 
Q 2878 531 3122 666 
L 3122 134 
Q 2881 22 2623 -34 
Q 2366 -91 2075 -91 
Q 1284 -91 818 406 
Q 353 903 353 1747 
Q 353 2603 823 3093 
Q 1294 3584 2113 3584 
Q 2378 3584 2631 3529 
Q 2884 3475 3122 3366 
z
" transform="scale(0.015625)"/>
       <path id="DejaVuSans-69" d="M 603 3500 
L 1178 3500 
L 1178 0 
L 603 0 
L 603 3500 
z
M 603 4863 
L 1178 4863 
L 1178 4134 
L 603 4134 
L 603 4863 
z
" transform="scale(0.015625)"/>
       <path id="DejaVuSans-6c" d="M 603 4863 
L 1178 4863 
L 1178 0 
L 603 0 
L 603 4863 
z
" transform="scale(0.015625)"/>
       <path id="DejaVuSans-6e" d="M 3513 2113 
L 3513 0 
L 2938 0 
L 2938 2094 
Q 2938 2591 2744 2837 
Q 2550 3084 2163 3084 
Q 1697 3084 1428 2787 
Q 1159 2491 1159 1978 
L 1159 0 
L 581 0 
L 581 3500 
L 1159 3500 
L 1159 2956 
Q 1366 3272 1645 3428 
Q 1925 3584 2291 3584 
Q 2894 3584 3203 3211 
Q 3513 2838 3513 2113 
z
" transform="scale(0.015625)"/>
       <path id="DejaVuSans-67" d="M 2906 1791 
Q 2906 2416 2648 2759 
Q 2391 3103 1925 3103 
Q 1463 3103 1205 2759 
Q 947 2416 947 1791 
Q 947 1169 1205 825 
Q 1463 481 1925 481 
Q 2391 481 2648 825 
Q 2906 1169 2906 1791 
z
M 3481 434 
Q 3481 -459 3084 -895 
Q 2688 -1331 1869 -1331 
Q 1566 -1331 1297 -1286 
Q 1028 -1241 775 -1147 
L 775 -588 
Q 1028 -725 1275 -790 
Q 1522 -856 1778 -856 
Q 2344 -856 2625 -561 
Q 2906 -266 2906 331 
L 2906 616 
Q 2728 306 2450 153 
Q 2172 0 1784 0 
Q 1141 0 747 490 
Q 353 981 353 1791 
Q 353 2603 747 3093 
Q 1141 3584 1784 3584 
Q 2172 3584 2450 3431 
Q 2728 3278 2906 2969 
L 2906 3500 
L 3481 3500 
L 3481 434 
z
" transform="scale(0.015625)"/>
      </defs>
      <use xlink:href="#DejaVuSans-6f"/>
      <use xlink:href="#DejaVuSans-73" x="61.181641"/>
      <use xlink:href="#DejaVuSans-63" x="113.28125"/>
      <use xlink:href="#DejaVuSans-69" x="168.261719"/>
      <use xlink:href="#DejaVuSans-6c" x="196.044922"/>
      <use xlink:href="#DejaVuSans-6c" x="223.828125"/>
      <use xlink:href="#DejaVuSans-61" x="251.611328"/>
      <use xlink:href="#DejaVuSans-74" x="312.890625"/>
      <use xlink:href="#DejaVuSans-69" x="352.099609"/>
      <use xlink:href="#DejaVuSans-6e" x="379.882812"/>
      <use xlink:href="#DejaVuSans-67" x="443.261719"/>
     </g>
    </g>
    <g id="PathCollection_2">
     <g>
      <use xlink:href="#m2b3ce6e75f" x="331.6075" y="65.647812" style="fill: #0000ff; stroke: #0000ff"/>
     </g>
    </g>
    <g id="text_20">
     <!-- noisy -->
     <g transform="translate(349.6075 68.272812)scale(0.1 -0.1)">
      <defs>
       <path id="DejaVuSans-79" d="M 2059 -325 
Q 1816 -950 1584 -1140 
Q 1353 -1331 966 -1331 
L 506 -1331 
L 506 -850 
L 844 -850 
Q 1081 -850 1212 -737 
Q 1344 -625 1503 -206 
L 1606 56 
L 191 3500 
L 800 3500 
L 1894 763 
L 2988 3500 
L 3597 3500 
L 2059 -325 
z
" transform="scale(0.015625)"/>
      </defs>
      <use xlink:href="#DejaVuSans-6e"/>
      <use xlink:href="#DejaVuSans-6f" x="63.378906"/>
      <use xlink:href="#DejaVuSans-69" x="124.560547"/>
      <use xlink:href="#DejaVuSans-73" x="152.34375"/>
      <use xlink:href="#DejaVuSans-79" x="204.443359"/>
     </g>
    </g>
   </g>
  </g>
 </g>
 <defs>
  <clipPath id="p8bb4b5c353">
   <rect x="52.160938" y="22.318125" width="357.12" height="266.112"/>
  </clipPath>
 </defs>
</svg>
