<?xml version="1.0" encoding="utf-8" standalone="no"?>
<!DOCTYPE svg PUBLIC "-//W3C//DTD SVG 1.1//EN"
  "http://www.w3.org/Graphics/SVG/1.1/DTD/svg11.dtd">
<svg xmlns:xlink="http://www.w3.org/1999/xlink" width="416.052813pt" height="325.986375pt" viewBox="0 0 416.052813 325.986375" xmlns="http://www.w3.org/2000/svg" version="1.1">
 <metadata>
  <rdf:RDF xmlns:dc="http://purl.org/dc/elements/1.1/" xmlns:cc="http://creativecommons.org/ns#" xmlns:rdf="http://www.w3.org/1999/02/22-rdf-syntax-ns#">
   <cc:Work>
    <dc:type rdf:resource="http://purl.org/dc/dcmitype/StillImage"/>
    <dc:date>2022-10-17T16:36:43.882074</dc:date>
    <dc:format>image/svg+xml</dc:format>
    <dc:creator>
     <cc:Agent>
      <dc:title>Matplotlib v3.5.1, https://matplotlib.org/</dc:title>
     </cc:Agent>
    </dc:creator>
   </cc:Work>
  </rdf:RDF>
 </metadata>
 <defs>
  <style type="text/css">*{stroke-linejoin: round; stroke-linecap: butt}</style>
 </defs>
 <g id="figure_1">
  <g id="patch_1">
   <path d="M 0 325.986375 
L 416.052813 325.986375 
L 416.052813 0 
L 0 0 
z
" style="fill: #ffffff"/>
  </g>
  <g id="axes_1">
   <g id="patch_2">
    <path d="M 43.78125 288.430125 
L 400.90125 288.430125 
L 400.90125 22.318125 
L 43.78125 22.318125 
z
" style="fill: #ffffff"/>
   </g>
   <g id="PathCollection_1">
    <defs>
     <path id="mabc36dbb8e" d="M 0 3 
C 0.795609 3 1.55874 2.683901 2.12132 2.12132 
C 2.683901 1.55874 3 0.795609 3 0 
C 3 -0.795609 2.683901 -1.55874 2.12132 -2.12132 
C 1.55874 -2.683901 0.795609 -3 0 -3 
C -0.795609 -3 -1.55874 -2.683901 -2.12132 -2.12132 
C -2.683901 -1.55874 -3 -0.795609 -3 0 
C -3 0.795609 -2.683901 1.55874 -2.12132 2.12132 
C -1.55874 2.683901 -0.795609 3 0 3 
z
" style="stroke: #0000ff"/>
    </defs>
    <g clip-path="url(#p7ccb6bcec2)">
     <use xlink:href="#mabc36dbb8e" x="43.78125" y="155.800313" style="fill: #0000ff; stroke: #0000ff"/>
     <use xlink:href="#mabc36dbb8e" x="47.35245" y="152.338924" style="fill: #0000ff; stroke: #0000ff"/>
     <use xlink:href="#mabc36dbb8e" x="50.92365" y="143.599301" style="fill: #0000ff; stroke: #0000ff"/>
     <use xlink:href="#mabc36dbb8e" x="54.49485" y="143.377181" style="fill: #0000ff; stroke: #0000ff"/>
     <use xlink:href="#mabc36dbb8e" x="58.06605" y="119.782798" style="fill: #0000ff; stroke: #0000ff"/>
     <use xlink:href="#mabc36dbb8e" x="61.63725" y="148.971965" style="fill: #0000ff; stroke: #0000ff"/>
     <use xlink:href="#mabc36dbb8e" x="65.20845" y="145.78046" style="fill: #0000ff; stroke: #0000ff"/>
     <use xlink:href="#mabc36dbb8e" x="68.77965" y="107.295811" style="fill: #0000ff; stroke: #0000ff"/>
     <use xlink:href="#mabc36dbb8e" x="72.35085" y="98.961446" style="fill: #0000ff; stroke: #0000ff"/>
     <use xlink:href="#mabc36dbb8e" x="75.92205" y="129.289867" style="fill: #0000ff; stroke: #0000ff"/>
     <use xlink:href="#mabc36dbb8e" x="79.49325" y="88.795169" style="fill: #0000ff; stroke: #0000ff"/>
     <use xlink:href="#mabc36dbb8e" x="83.06445" y="90.478017" style="fill: #0000ff; stroke: #0000ff"/>
     <use xlink:href="#mabc36dbb8e" x="86.63565" y="98.928745" style="fill: #0000ff; stroke: #0000ff"/>
     <use xlink:href="#mabc36dbb8e" x="90.20685" y="108.455481" style="fill: #0000ff; stroke: #0000ff"/>
     <use xlink:href="#mabc36dbb8e" x="93.77805" y="90.554802" style="fill: #0000ff; stroke: #0000ff"/>
     <use xlink:href="#mabc36dbb8e" x="97.34925" y="100.878465" style="fill: #0000ff; stroke: #0000ff"/>
     <use xlink:href="#mabc36dbb8e" x="100.92045" y="86.895886" style="fill: #0000ff; stroke: #0000ff"/>
     <use xlink:href="#mabc36dbb8e" x="104.49165" y="81.571695" style="fill: #0000ff; stroke: #0000ff"/>
     <use xlink:href="#mabc36dbb8e" x="108.06285" y="91.943059" style="fill: #0000ff; stroke: #0000ff"/>
     <use xlink:href="#mabc36dbb8e" x="111.63405" y="87.448892" style="fill: #0000ff; stroke: #0000ff"/>
     <use xlink:href="#mabc36dbb8e" x="115.20525" y="80.653741" style="fill: #0000ff; stroke: #0000ff"/>
     <use xlink:href="#mabc36dbb8e" x="118.77645" y="55.524282" style="fill: #0000ff; stroke: #0000ff"/>
     <use xlink:href="#mabc36dbb8e" x="122.34765" y="63.251953" style="fill: #0000ff; stroke: #0000ff"/>
     <use xlink:href="#mabc36dbb8e" x="125.91885" y="64.365806" style="fill: #0000ff; stroke: #0000ff"/>
     <use xlink:href="#mabc36dbb8e" x="129.49005" y="79.586515" style="fill: #0000ff; stroke: #0000ff"/>
     <use xlink:href="#mabc36dbb8e" x="133.06125" y="77.568885" style="fill: #0000ff; stroke: #0000ff"/>
     <use xlink:href="#mabc36dbb8e" x="136.63245" y="52.681971" style="fill: #0000ff; stroke: #0000ff"/>
     <use xlink:href="#mabc36dbb8e" x="140.20365" y="63.703308" style="fill: #0000ff; stroke: #0000ff"/>
     <use xlink:href="#mabc36dbb8e" x="143.77485" y="68.204768" style="fill: #0000ff; stroke: #0000ff"/>
     <use xlink:href="#mabc36dbb8e" x="147.34605" y="40.776524" style="fill: #0000ff; stroke: #0000ff"/>
     <use xlink:href="#mabc36dbb8e" x="150.91725" y="39.91396" style="fill: #0000ff; stroke: #0000ff"/>
     <use xlink:href="#mabc36dbb8e" x="154.48845" y="34.414125" style="fill: #0000ff; stroke: #0000ff"/>
     <use xlink:href="#mabc36dbb8e" x="158.05965" y="37.304596" style="fill: #0000ff; stroke: #0000ff"/>
     <use xlink:href="#mabc36dbb8e" x="161.63085" y="61.79178" style="fill: #0000ff; stroke: #0000ff"/>
     <use xlink:href="#mabc36dbb8e" x="165.20205" y="49.105094" style="fill: #0000ff; stroke: #0000ff"/>
     <use xlink:href="#mabc36dbb8e" x="168.77325" y="48.020388" style="fill: #0000ff; stroke: #0000ff"/>
     <use xlink:href="#mabc36dbb8e" x="172.34445" y="68.354613" style="fill: #0000ff; stroke: #0000ff"/>
     <use xlink:href="#mabc36dbb8e" x="175.91565" y="35.135396" style="fill: #0000ff; stroke: #0000ff"/>
     <use xlink:href="#mabc36dbb8e" x="179.48685" y="38.751349" style="fill: #0000ff; stroke: #0000ff"/>
     <use xlink:href="#mabc36dbb8e" x="183.05805" y="71.925916" style="fill: #0000ff; stroke: #0000ff"/>
     <use xlink:href="#mabc36dbb8e" x="186.62925" y="41.981637" style="fill: #0000ff; stroke: #0000ff"/>
     <use xlink:href="#mabc36dbb8e" x="190.20045" y="68.041219" style="fill: #0000ff; stroke: #0000ff"/>
     <use xlink:href="#mabc36dbb8e" x="193.77165" y="42.000405" style="fill: #0000ff; stroke: #0000ff"/>
     <use xlink:href="#mabc36dbb8e" x="197.34285" y="45.922295" style="fill: #0000ff; stroke: #0000ff"/>
     <use xlink:href="#mabc36dbb8e" x="200.91405" y="79.193068" style="fill: #0000ff; stroke: #0000ff"/>
     <use xlink:href="#mabc36dbb8e" x="204.48525" y="74.763557" style="fill: #0000ff; stroke: #0000ff"/>
     <use xlink:href="#mabc36dbb8e" x="208.05645" y="89.820485" style="fill: #0000ff; stroke: #0000ff"/>
     <use xlink:href="#mabc36dbb8e" x="211.62765" y="70.391077" style="fill: #0000ff; stroke: #0000ff"/>
     <use xlink:href="#mabc36dbb8e" x="215.19885" y="89.070048" style="fill: #0000ff; stroke: #0000ff"/>
     <use xlink:href="#mabc36dbb8e" x="218.77005" y="84.317033" style="fill: #0000ff; stroke: #0000ff"/>
     <use xlink:href="#mabc36dbb8e" x="222.34125" y="64.020739" style="fill: #0000ff; stroke: #0000ff"/>
     <use xlink:href="#mabc36dbb8e" x="225.91245" y="99.367314" style="fill: #0000ff; stroke: #0000ff"/>
     <use xlink:href="#mabc36dbb8e" x="229.48365" y="107.158082" style="fill: #0000ff; stroke: #0000ff"/>
     <use xlink:href="#mabc36dbb8e" x="233.05485" y="76.732534" style="fill: #0000ff; stroke: #0000ff"/>
     <use xlink:href="#mabc36dbb8e" x="236.62605" y="83.273737" style="fill: #0000ff; stroke: #0000ff"/>
     <use xlink:href="#mabc36dbb8e" x="240.19725" y="89.59025" style="fill: #0000ff; stroke: #0000ff"/>
     <use xlink:href="#mabc36dbb8e" x="243.76845" y="101.85218" style="fill: #0000ff; stroke: #0000ff"/>
     <use xlink:href="#mabc36dbb8e" x="247.33965" y="128.180682" style="fill: #0000ff; stroke: #0000ff"/>
     <use xlink:href="#mabc36dbb8e" x="250.91085" y="121.428973" style="fill: #0000ff; stroke: #0000ff"/>
     <use xlink:href="#mabc36dbb8e" x="254.48205" y="118.287977" style="fill: #0000ff; stroke: #0000ff"/>
     <use xlink:href="#mabc36dbb8e" x="258.05325" y="123.420103" style="fill: #0000ff; stroke: #0000ff"/>
     <use xlink:href="#mabc36dbb8e" x="261.62445" y="137.073742" style="fill: #0000ff; stroke: #0000ff"/>
     <use xlink:href="#mabc36dbb8e" x="265.19565" y="129.763353" style="fill: #0000ff; stroke: #0000ff"/>
     <use xlink:href="#mabc36dbb8e" x="268.76685" y="148.743137" style="fill: #0000ff; stroke: #0000ff"/>
     <use xlink:href="#mabc36dbb8e" x="272.33805" y="127.551105" style="fill: #0000ff; stroke: #0000ff"/>
     <use xlink:href="#mabc36dbb8e" x="275.90925" y="154.694156" style="fill: #0000ff; stroke: #0000ff"/>
     <use xlink:href="#mabc36dbb8e" x="279.48045" y="169.111627" style="fill: #0000ff; stroke: #0000ff"/>
     <use xlink:href="#mabc36dbb8e" x="283.05165" y="161.780572" style="fill: #0000ff; stroke: #0000ff"/>
     <use xlink:href="#mabc36dbb8e" x="286.62285" y="162.08771" style="fill: #0000ff; stroke: #0000ff"/>
     <use xlink:href="#mabc36dbb8e" x="290.19405" y="155.23397" style="fill: #0000ff; stroke: #0000ff"/>
     <use xlink:href="#mabc36dbb8e" x="293.76525" y="163.787453" style="fill: #0000ff; stroke: #0000ff"/>
     <use xlink:href="#mabc36dbb8e" x="297.33645" y="180.440557" style="fill: #0000ff; stroke: #0000ff"/>
     <use xlink:href="#mabc36dbb8e" x="300.90765" y="180.159522" style="fill: #0000ff; stroke: #0000ff"/>
     <use xlink:href="#mabc36dbb8e" x="304.47885" y="195.937269" style="fill: #0000ff; stroke: #0000ff"/>
     <use xlink:href="#mabc36dbb8e" x="308.05005" y="177.387106" style="fill: #0000ff; stroke: #0000ff"/>
     <use xlink:href="#mabc36dbb8e" x="311.62125" y="188.356884" style="fill: #0000ff; stroke: #0000ff"/>
     <use xlink:href="#mabc36dbb8e" x="315.19245" y="184.249614" style="fill: #0000ff; stroke: #0000ff"/>
     <use xlink:href="#mabc36dbb8e" x="318.76365" y="193.264902" style="fill: #0000ff; stroke: #0000ff"/>
     <use xlink:href="#mabc36dbb8e" x="322.33485" y="210.955419" style="fill: #0000ff; stroke: #0000ff"/>
     <use xlink:href="#mabc36dbb8e" x="325.90605" y="211.83335" style="fill: #0000ff; stroke: #0000ff"/>
     <use xlink:href="#mabc36dbb8e" x="329.47725" y="198.082219" style="fill: #0000ff; stroke: #0000ff"/>
     <use xlink:href="#mabc36dbb8e" x="333.04845" y="215.222173" style="fill: #0000ff; stroke: #0000ff"/>
     <use xlink:href="#mabc36dbb8e" x="336.61965" y="240.649189" style="fill: #0000ff; stroke: #0000ff"/>
     <use xlink:href="#mabc36dbb8e" x="340.19085" y="220.692532" style="fill: #0000ff; stroke: #0000ff"/>
     <use xlink:href="#mabc36dbb8e" x="343.76205" y="223.073724" style="fill: #0000ff; stroke: #0000ff"/>
     <use xlink:href="#mabc36dbb8e" x="347.33325" y="231.806709" style="fill: #0000ff; stroke: #0000ff"/>
     <use xlink:href="#mabc36dbb8e" x="350.90445" y="254.773138" style="fill: #0000ff; stroke: #0000ff"/>
     <use xlink:href="#mabc36dbb8e" x="354.47565" y="247.208839" style="fill: #0000ff; stroke: #0000ff"/>
     <use xlink:href="#mabc36dbb8e" x="358.04685" y="242.308405" style="fill: #0000ff; stroke: #0000ff"/>
     <use xlink:href="#mabc36dbb8e" x="361.61805" y="228.689715" style="fill: #0000ff; stroke: #0000ff"/>
     <use xlink:href="#mabc36dbb8e" x="365.18925" y="226.321051" style="fill: #0000ff; stroke: #0000ff"/>
     <use xlink:href="#mabc36dbb8e" x="368.76045" y="265.733093" style="fill: #0000ff; stroke: #0000ff"/>
     <use xlink:href="#mabc36dbb8e" x="372.33165" y="263.917502" style="fill: #0000ff; stroke: #0000ff"/>
     <use xlink:href="#mabc36dbb8e" x="375.90285" y="271.175842" style="fill: #0000ff; stroke: #0000ff"/>
     <use xlink:href="#mabc36dbb8e" x="379.47405" y="250.716582" style="fill: #0000ff; stroke: #0000ff"/>
     <use xlink:href="#mabc36dbb8e" x="383.04525" y="261.234403" style="fill: #0000ff; stroke: #0000ff"/>
     <use xlink:href="#mabc36dbb8e" x="386.61645" y="242.281191" style="fill: #0000ff; stroke: #0000ff"/>
     <use xlink:href="#mabc36dbb8e" x="390.18765" y="276.334125" style="fill: #0000ff; stroke: #0000ff"/>
     <use xlink:href="#mabc36dbb8e" x="393.75885" y="245.976567" style="fill: #0000ff; stroke: #0000ff"/>
     <use xlink:href="#mabc36dbb8e" x="397.33005" y="239.861264" style="fill: #0000ff; stroke: #0000ff"/>
     <use xlink:href="#mabc36dbb8e" x="400.90125" y="262.8977" style="fill: #0000ff; stroke: #0000ff"/>
    </g>
   </g>
   <g id="matplotlib.axis_1">
    <g id="xtick_1">
     <g id="line2d_1">
      <path d="M 43.78125 288.430125 
L 43.78125 22.318125 
" clip-path="url(#p7ccb6bcec2)" style="fill: none; stroke: #b0b0b0; stroke-width: 0.8; stroke-linecap: square"/>
     </g>
     <g id="line2d_2">
      <defs>
       <path id="me4331b07d0" d="M 0 0 
L 0 3.5 
" style="stroke: #000000; stroke-width: 0.8"/>
      </defs>
      <g>
       <use xlink:href="#me4331b07d0" x="43.78125" y="288.430125" style="stroke: #000000; stroke-width: 0.8"/>
      </g>
     </g>
     <g id="text_1">
      <!-- 0.0 -->
      <g transform="translate(35.829688 303.028562)scale(0.1 -0.1)">
       <defs>
        <path id="DejaVuSans-30" d="M 2034 4250 
Q 1547 4250 1301 3770 
Q 1056 3291 1056 2328 
Q 1056 1369 1301 889 
Q 1547 409 2034 409 
Q 2525 409 2770 889 
Q 3016 1369 3016 2328 
Q 3016 3291 2770 3770 
Q 2525 4250 2034 4250 
z
M 2034 4750 
Q 2819 4750 3233 4129 
Q 3647 3509 3647 2328 
Q 3647 1150 3233 529 
Q 2819 -91 2034 -91 
Q 1250 -91 836 529 
Q 422 1150 422 2328 
Q 422 3509 836 4129 
Q 1250 4750 2034 4750 
z
" transform="scale(0.015625)"/>
        <path id="DejaVuSans-2e" d="M 684 794 
L 1344 794 
L 1344 0 
L 684 0 
L 684 794 
z
" transform="scale(0.015625)"/>
       </defs>
       <use xlink:href="#DejaVuSans-30"/>
       <use xlink:href="#DejaVuSans-2e" x="63.623047"/>
       <use xlink:href="#DejaVuSans-30" x="95.410156"/>
      </g>
     </g>
    </g>
    <g id="xtick_2">
     <g id="line2d_3">
      <path d="M 115.20525 288.430125 
L 115.20525 22.318125 
" clip-path="url(#p7ccb6bcec2)" style="fill: none; stroke: #b0b0b0; stroke-width: 0.8; stroke-linecap: square"/>
     </g>
     <g id="line2d_4">
      <g>
       <use xlink:href="#me4331b07d0" x="115.20525" y="288.430125" style="stroke: #000000; stroke-width: 0.8"/>
      </g>
     </g>
     <g id="text_2">
      <!-- 0.2 -->
      <g transform="translate(107.253688 303.028562)scale(0.1 -0.1)">
       <defs>
        <path id="DejaVuSans-32" d="M 1228 531 
L 3431 531 
L 3431 0 
L 469 0 
L 469 531 
Q 828 903 1448 1529 
Q 2069 2156 2228 2338 
Q 2531 2678 2651 2914 
Q 2772 3150 2772 3378 
Q 2772 3750 2511 3984 
Q 2250 4219 1831 4219 
Q 1534 4219 1204 4116 
Q 875 4013 500 3803 
L 500 4441 
Q 881 4594 1212 4672 
Q 1544 4750 1819 4750 
Q 2544 4750 2975 4387 
Q 3406 4025 3406 3419 
Q 3406 3131 3298 2873 
Q 3191 2616 2906 2266 
Q 2828 2175 2409 1742 
Q 1991 1309 1228 531 
z
" transform="scale(0.015625)"/>
       </defs>
       <use xlink:href="#DejaVuSans-30"/>
       <use xlink:href="#DejaVuSans-2e" x="63.623047"/>
       <use xlink:href="#DejaVuSans-32" x="95.410156"/>
      </g>
     </g>
    </g>
    <g id="xtick_3">
     <g id="line2d_5">
      <path d="M 186.62925 288.430125 
L 186.62925 22.318125 
" clip-path="url(#p7ccb6bcec2)" style="fill: none; stroke: #b0b0b0; stroke-width: 0.8; stroke-linecap: square"/>
     </g>
     <g id="line2d_6">
      <g>
       <use xlink:href="#me4331b07d0" x="186.62925" y="288.430125" style="stroke: #000000; stroke-width: 0.8"/>
      </g>
     </g>
     <g id="text_3">
      <!-- 0.4 -->
      <g transform="translate(178.677688 303.028562)scale(0.1 -0.1)">
       <defs>
        <path id="DejaVuSans-34" d="M 2419 4116 
L 825 1625 
L 2419 1625 
L 2419 4116 
z
M 2253 4666 
L 3047 4666 
L 3047 1625 
L 3713 1625 
L 3713 1100 
L 3047 1100 
L 3047 0 
L 2419 0 
L 2419 1100 
L 313 1100 
L 313 1709 
L 2253 4666 
z
" transform="scale(0.015625)"/>
       </defs>
       <use xlink:href="#DejaVuSans-30"/>
       <use xlink:href="#DejaVuSans-2e" x="63.623047"/>
       <use xlink:href="#DejaVuSans-34" x="95.410156"/>
      </g>
     </g>
    </g>
    <g id="xtick_4">
     <g id="line2d_7">
      <path d="M 258.05325 288.430125 
L 258.05325 22.318125 
" clip-path="url(#p7ccb6bcec2)" style="fill: none; stroke: #b0b0b0; stroke-width: 0.8; stroke-linecap: square"/>
     </g>
     <g id="line2d_8">
      <g>
       <use xlink:href="#me4331b07d0" x="258.05325" y="288.430125" style="stroke: #000000; stroke-width: 0.8"/>
      </g>
     </g>
     <g id="text_4">
      <!-- 0.6 -->
      <g transform="translate(250.101688 303.028562)scale(0.1 -0.1)">
       <defs>
        <path id="DejaVuSans-36" d="M 2113 2584 
Q 1688 2584 1439 2293 
Q 1191 2003 1191 1497 
Q 1191 994 1439 701 
Q 1688 409 2113 409 
Q 2538 409 2786 701 
Q 3034 994 3034 1497 
Q 3034 2003 2786 2293 
Q 2538 2584 2113 2584 
z
M 3366 4563 
L 3366 3988 
Q 3128 4100 2886 4159 
Q 2644 4219 2406 4219 
Q 1781 4219 1451 3797 
Q 1122 3375 1075 2522 
Q 1259 2794 1537 2939 
Q 1816 3084 2150 3084 
Q 2853 3084 3261 2657 
Q 3669 2231 3669 1497 
Q 3669 778 3244 343 
Q 2819 -91 2113 -91 
Q 1303 -91 875 529 
Q 447 1150 447 2328 
Q 447 3434 972 4092 
Q 1497 4750 2381 4750 
Q 2619 4750 2861 4703 
Q 3103 4656 3366 4563 
z
" transform="scale(0.015625)"/>
       </defs>
       <use xlink:href="#DejaVuSans-30"/>
       <use xlink:href="#DejaVuSans-2e" x="63.623047"/>
       <use xlink:href="#DejaVuSans-36" x="95.410156"/>
      </g>
     </g>
    </g>
    <g id="xtick_5">
     <g id="line2d_9">
      <path d="M 329.47725 288.430125 
L 329.47725 22.318125 
" clip-path="url(#p7ccb6bcec2)" style="fill: none; stroke: #b0b0b0; stroke-width: 0.8; stroke-linecap: square"/>
     </g>
     <g id="line2d_10">
      <g>
       <use xlink:href="#me4331b07d0" x="329.47725" y="288.430125" style="stroke: #000000; stroke-width: 0.8"/>
      </g>
     </g>
     <g id="text_5">
      <!-- 0.8 -->
      <g transform="translate(321.525688 303.028562)scale(0.1 -0.1)">
       <defs>
        <path id="DejaVuSans-38" d="M 2034 2216 
Q 1584 2216 1326 1975 
Q 1069 1734 1069 1313 
Q 1069 891 1326 650 
Q 1584 409 2034 409 
Q 2484 409 2743 651 
Q 3003 894 3003 1313 
Q 3003 1734 2745 1975 
Q 2488 2216 2034 2216 
z
M 1403 2484 
Q 997 2584 770 2862 
Q 544 3141 544 3541 
Q 544 4100 942 4425 
Q 1341 4750 2034 4750 
Q 2731 4750 3128 4425 
Q 3525 4100 3525 3541 
Q 3525 3141 3298 2862 
Q 3072 2584 2669 2484 
Q 3125 2378 3379 2068 
Q 3634 1759 3634 1313 
Q 3634 634 3220 271 
Q 2806 -91 2034 -91 
Q 1263 -91 848 271 
Q 434 634 434 1313 
Q 434 1759 690 2068 
Q 947 2378 1403 2484 
z
M 1172 3481 
Q 1172 3119 1398 2916 
Q 1625 2713 2034 2713 
Q 2441 2713 2670 2916 
Q 2900 3119 2900 3481 
Q 2900 3844 2670 4047 
Q 2441 4250 2034 4250 
Q 1625 4250 1398 4047 
Q 1172 3844 1172 3481 
z
" transform="scale(0.015625)"/>
       </defs>
       <use xlink:href="#DejaVuSans-30"/>
       <use xlink:href="#DejaVuSans-2e" x="63.623047"/>
       <use xlink:href="#DejaVuSans-38" x="95.410156"/>
      </g>
     </g>
    </g>
    <g id="xtick_6">
     <g id="line2d_11">
      <path d="M 400.90125 288.430125 
L 400.90125 22.318125 
" clip-path="url(#p7ccb6bcec2)" style="fill: none; stroke: #b0b0b0; stroke-width: 0.8; stroke-linecap: square"/>
     </g>
     <g id="line2d_12">
      <g>
       <use xlink:href="#me4331b07d0" x="400.90125" y="288.430125" style="stroke: #000000; stroke-width: 0.8"/>
      </g>
     </g>
     <g id="text_6">
      <!-- 1.0 -->
      <g transform="translate(392.949687 303.028562)scale(0.1 -0.1)">
       <defs>
        <path id="DejaVuSans-31" d="M 794 531 
L 1825 531 
L 1825 4091 
L 703 3866 
L 703 4441 
L 1819 4666 
L 2450 4666 
L 2450 531 
L 3481 531 
L 3481 0 
L 794 0 
L 794 531 
z
" transform="scale(0.015625)"/>
       </defs>
       <use xlink:href="#DejaVuSans-31"/>
       <use xlink:href="#DejaVuSans-2e" x="63.623047"/>
       <use xlink:href="#DejaVuSans-30" x="95.410156"/>
      </g>
     </g>
    </g>
    <g id="text_7">
     <!-- x -->
     <g transform="translate(219.381875 316.706687)scale(0.1 -0.1)">
      <defs>
       <path id="DejaVuSans-78" d="M 3513 3500 
L 2247 1797 
L 3578 0 
L 2900 0 
L 1881 1375 
L 863 0 
L 184 0 
L 1544 1831 
L 300 3500 
L 978 3500 
L 1906 2253 
L 2834 3500 
L 3513 3500 
z
" transform="scale(0.015625)"/>
      </defs>
      <use xlink:href="#DejaVuSans-78"/>
     </g>
    </g>
   </g>
   <g id="matplotlib.axis_2">
    <g id="ytick_1">
     <g id="line2d_13">
      <path d="M 43.78125 257.957137 
L 400.90125 257.957137 
" clip-path="url(#p7ccb6bcec2)" style="fill: none; stroke: #b0b0b0; stroke-width: 0.8; stroke-linecap: square"/>
     </g>
     <g id="line2d_14">
      <defs>
       <path id="mb0d601df3e" d="M 0 0 
L -3.5 0 
" style="stroke: #000000; stroke-width: 0.8"/>
      </defs>
      <g>
       <use xlink:href="#mb0d601df3e" x="43.78125" y="257.957137" style="stroke: #000000; stroke-width: 0.8"/>
      </g>
     </g>
     <g id="text_8">
      <!-- 0.0 -->
      <g transform="translate(20.878125 261.756355)scale(0.1 -0.1)">
       <use xlink:href="#DejaVuSans-30"/>
       <use xlink:href="#DejaVuSans-2e" x="63.623047"/>
       <use xlink:href="#DejaVuSans-30" x="95.410156"/>
      </g>
     </g>
    </g>
    <g id="ytick_2">
     <g id="line2d_15">
      <path d="M 43.78125 216.799576 
L 400.90125 216.799576 
" clip-path="url(#p7ccb6bcec2)" style="fill: none; stroke: #b0b0b0; stroke-width: 0.8; stroke-linecap: square"/>
     </g>
     <g id="line2d_16">
      <g>
       <use xlink:href="#mb0d601df3e" x="43.78125" y="216.799576" style="stroke: #000000; stroke-width: 0.8"/>
      </g>
     </g>
     <g id="text_9">
      <!-- 0.2 -->
      <g transform="translate(20.878125 220.598795)scale(0.1 -0.1)">
       <use xlink:href="#DejaVuSans-30"/>
       <use xlink:href="#DejaVuSans-2e" x="63.623047"/>
       <use xlink:href="#DejaVuSans-32" x="95.410156"/>
      </g>
     </g>
    </g>
    <g id="ytick_3">
     <g id="line2d_17">
      <path d="M 43.78125 175.642016 
L 400.90125 175.642016 
" clip-path="url(#p7ccb6bcec2)" style="fill: none; stroke: #b0b0b0; stroke-width: 0.8; stroke-linecap: square"/>
     </g>
     <g id="line2d_18">
      <g>
       <use xlink:href="#mb0d601df3e" x="43.78125" y="175.642016" style="stroke: #000000; stroke-width: 0.8"/>
      </g>
     </g>
     <g id="text_10">
      <!-- 0.4 -->
      <g transform="translate(20.878125 179.441235)scale(0.1 -0.1)">
       <use xlink:href="#DejaVuSans-30"/>
       <use xlink:href="#DejaVuSans-2e" x="63.623047"/>
       <use xlink:href="#DejaVuSans-34" x="95.410156"/>
      </g>
     </g>
    </g>
    <g id="ytick_4">
     <g id="line2d_19">
      <path d="M 43.78125 134.484456 
L 400.90125 134.484456 
" clip-path="url(#p7ccb6bcec2)" style="fill: none; stroke: #b0b0b0; stroke-width: 0.8; stroke-linecap: square"/>
     </g>
     <g id="line2d_20">
      <g>
       <use xlink:href="#mb0d601df3e" x="43.78125" y="134.484456" style="stroke: #000000; stroke-width: 0.8"/>
      </g>
     </g>
     <g id="text_11">
      <!-- 0.6 -->
      <g transform="translate(20.878125 138.283675)scale(0.1 -0.1)">
       <use xlink:href="#DejaVuSans-30"/>
       <use xlink:href="#DejaVuSans-2e" x="63.623047"/>
       <use xlink:href="#DejaVuSans-36" x="95.410156"/>
      </g>
     </g>
    </g>
    <g id="ytick_5">
     <g id="line2d_21">
      <path d="M 43.78125 93.326896 
L 400.90125 93.326896 
" clip-path="url(#p7ccb6bcec2)" style="fill: none; stroke: #b0b0b0; stroke-width: 0.8; stroke-linecap: square"/>
     </g>
     <g id="line2d_22">
      <g>
       <use xlink:href="#mb0d601df3e" x="43.78125" y="93.326896" style="stroke: #000000; stroke-width: 0.8"/>
      </g>
     </g>
     <g id="text_12">
      <!-- 0.8 -->
      <g transform="translate(20.878125 97.126115)scale(0.1 -0.1)">
       <use xlink:href="#DejaVuSans-30"/>
       <use xlink:href="#DejaVuSans-2e" x="63.623047"/>
       <use xlink:href="#DejaVuSans-38" x="95.410156"/>
      </g>
     </g>
    </g>
    <g id="ytick_6">
     <g id="line2d_23">
      <path d="M 43.78125 52.169336 
L 400.90125 52.169336 
" clip-path="url(#p7ccb6bcec2)" style="fill: none; stroke: #b0b0b0; stroke-width: 0.8; stroke-linecap: square"/>
     </g>
     <g id="line2d_24">
      <g>
       <use xlink:href="#mb0d601df3e" x="43.78125" y="52.169336" style="stroke: #000000; stroke-width: 0.8"/>
      </g>
     </g>
     <g id="text_13">
      <!-- 1.0 -->
      <g transform="translate(20.878125 55.968555)scale(0.1 -0.1)">
       <use xlink:href="#DejaVuSans-31"/>
       <use xlink:href="#DejaVuSans-2e" x="63.623047"/>
       <use xlink:href="#DejaVuSans-30" x="95.410156"/>
      </g>
     </g>
    </g>
    <g id="text_14">
     <!-- output -->
     <g transform="translate(14.798438 171.865531)rotate(-90)scale(0.1 -0.1)">
      <defs>
       <path id="DejaVuSans-6f" d="M 1959 3097 
Q 1497 3097 1228 2736 
Q 959 2375 959 1747 
Q 959 1119 1226 758 
Q 1494 397 1959 397 
Q 2419 397 2687 759 
Q 2956 1122 2956 1747 
Q 2956 2369 2687 2733 
Q 2419 3097 1959 3097 
z
M 1959 3584 
Q 2709 3584 3137 3096 
Q 3566 2609 3566 1747 
Q 3566 888 3137 398 
Q 2709 -91 1959 -91 
Q 1206 -91 779 398 
Q 353 888 353 1747 
Q 353 2609 779 3096 
Q 1206 3584 1959 3584 
z
" transform="scale(0.015625)"/>
       <path id="DejaVuSans-75" d="M 544 1381 
L 544 3500 
L 1119 3500 
L 1119 1403 
Q 1119 906 1312 657 
Q 1506 409 1894 409 
Q 2359 409 2629 706 
Q 2900 1003 2900 1516 
L 2900 3500 
L 3475 3500 
L 3475 0 
L 2900 0 
L 2900 538 
Q 2691 219 2414 64 
Q 2138 -91 1772 -91 
Q 1169 -91 856 284 
Q 544 659 544 1381 
z
M 1991 3584 
L 1991 3584 
z
" transform="scale(0.015625)"/>
       <path id="DejaVuSans-74" d="M 1172 4494 
L 1172 3500 
L 2356 3500 
L 2356 3053 
L 1172 3053 
L 1172 1153 
Q 1172 725 1289 603 
Q 1406 481 1766 481 
L 2356 481 
L 2356 0 
L 1766 0 
Q 1100 0 847 248 
Q 594 497 594 1153 
L 594 3053 
L 172 3053 
L 172 3500 
L 594 3500 
L 594 4494 
L 1172 4494 
z
" transform="scale(0.015625)"/>
       <path id="DejaVuSans-70" d="M 1159 525 
L 1159 -1331 
L 581 -1331 
L 581 3500 
L 1159 3500 
L 1159 2969 
Q 1341 3281 1617 3432 
Q 1894 3584 2278 3584 
Q 2916 3584 3314 3078 
Q 3713 2572 3713 1747 
Q 3713 922 3314 415 
Q 2916 -91 2278 -91 
Q 1894 -91 1617 61 
Q 1341 213 1159 525 
z
M 3116 1747 
Q 3116 2381 2855 2742 
Q 2594 3103 2138 3103 
Q 1681 3103 1420 2742 
Q 1159 2381 1159 1747 
Q 1159 1113 1420 752 
Q 1681 391 2138 391 
Q 2594 391 2855 752 
Q 3116 1113 3116 1747 
z
" transform="scale(0.015625)"/>
      </defs>
      <use xlink:href="#DejaVuSans-6f"/>
      <use xlink:href="#DejaVuSans-75" x="61.181641"/>
      <use xlink:href="#DejaVuSans-74" x="124.560547"/>
      <use xlink:href="#DejaVuSans-70" x="163.769531"/>
      <use xlink:href="#DejaVuSans-75" x="227.246094"/>
      <use xlink:href="#DejaVuSans-74" x="290.625"/>
     </g>
    </g>
   </g>
   <g id="line2d_25">
    <path d="M 43.78125 155.063236 
L 47.35245 150.21627 
L 50.92365 145.380065 
L 54.49485 140.565359 
L 58.06605 135.782842 
L 61.63725 131.043132 
L 65.20845 126.356753 
L 68.77965 121.73411 
L 72.35085 117.185465 
L 75.92205 112.720919 
L 79.49325 108.350383 
L 83.06445 104.083561 
L 86.63565 99.929927 
L 90.20685 95.898703 
L 93.77805 91.998839 
L 97.34925 88.238994 
L 100.92045 84.627515 
L 104.49165 81.172421 
L 108.06285 77.881383 
L 111.63405 74.761708 
L 115.20525 71.820322 
L 118.77645 69.063757 
L 122.34765 66.498132 
L 125.91885 64.129144 
L 129.49005 61.962052 
L 133.06125 60.001668 
L 136.63245 58.252344 
L 140.20365 56.717965 
L 143.77485 55.401937 
L 147.34605 54.307182 
L 150.91725 53.436131 
L 154.48845 52.790717 
L 158.05965 52.372374 
L 161.63085 52.18203 
L 165.20205 52.220108 
L 168.77325 52.486524 
L 172.34445 52.980685 
L 175.91565 53.701495 
L 179.48685 54.647354 
L 183.05805 55.816161 
L 186.62925 57.205322 
L 190.20045 58.811751 
L 193.77165 60.631883 
L 197.34285 62.661676 
L 200.91405 64.896624 
L 204.48525 67.331764 
L 208.05645 69.96169 
L 211.62765 72.780563 
L 215.19885 75.782123 
L 218.77005 78.959708 
L 222.34125 82.306262 
L 225.91245 85.814354 
L 229.48365 89.476196 
L 233.05485 93.283657 
L 236.62605 97.228285 
L 240.19725 101.301321 
L 243.76845 105.493722 
L 247.33965 109.796179 
L 250.91085 114.199141 
L 254.48205 118.692831 
L 258.05325 123.267272 
L 261.62445 127.912309 
L 265.19565 132.617627 
L 268.76685 137.372781 
L 272.33805 142.167211 
L 275.90925 146.990274 
L 279.48045 151.831261 
L 283.05165 156.679423 
L 286.62285 161.523998 
L 290.19405 166.354228 
L 293.76525 171.159389 
L 297.33645 175.928812 
L 300.90765 180.651909 
L 304.47885 185.318192 
L 308.05005 189.917302 
L 311.62125 194.439027 
L 315.19245 198.873328 
L 318.76365 203.21036 
L 322.33485 207.440493 
L 325.90605 211.554335 
L 329.47725 215.542753 
L 333.04845 219.396892 
L 336.61965 223.108193 
L 340.19085 226.668418 
L 343.76205 230.069662 
L 347.33325 233.304372 
L 350.90445 236.365367 
L 354.47565 239.245852 
L 358.04685 241.93943 
L 361.61805 244.440121 
L 365.18925 246.742373 
L 368.76045 248.841074 
L 372.33165 250.731565 
L 375.90285 252.409649 
L 379.47405 253.871599 
L 383.04525 255.11417 
L 386.61645 256.134603 
L 390.18765 256.930632 
L 393.75885 257.50049 
L 397.33005 257.842911 
L 400.90125 257.957137 
" clip-path="url(#p7ccb6bcec2)" style="fill: none; stroke: #000000; stroke-width: 1.5; stroke-linecap: square"/>
   </g>
   <g id="patch_3">
    <path d="M 43.78125 288.430125 
L 43.78125 22.318125 
" style="fill: none; stroke: #000000; stroke-width: 0.8; stroke-linejoin: miter; stroke-linecap: square"/>
   </g>
   <g id="patch_4">
    <path d="M 400.90125 288.430125 
L 400.90125 22.318125 
" style="fill: none; stroke: #000000; stroke-width: 0.8; stroke-linejoin: miter; stroke-linecap: square"/>
   </g>
   <g id="patch_5">
    <path d="M 43.78125 288.430125 
L 400.90125 288.430125 
" style="fill: none; stroke: #000000; stroke-width: 0.8; stroke-linejoin: miter; stroke-linecap: square"/>
   </g>
   <g id="patch_6">
    <path d="M 43.78125 22.318125 
L 400.90125 22.318125 
" style="fill: none; stroke: #000000; stroke-width: 0.8; stroke-linejoin: miter; stroke-linecap: square"/>
   </g>
   <g id="text_15">
    <!-- The two datasets -->
    <g transform="translate(170.627813 16.318125)scale(0.12 -0.12)">
     <defs>
      <path id="DejaVuSans-54" d="M -19 4666 
L 3928 4666 
L 3928 4134 
L 2272 4134 
L 2272 0 
L 1638 0 
L 1638 4134 
L -19 4134 
L -19 4666 
z
" transform="scale(0.015625)"/>
      <path id="DejaVuSans-68" d="M 3513 2113 
L 3513 0 
L 2938 0 
L 2938 2094 
Q 2938 2591 2744 2837 
Q 2550 3084 2163 3084 
Q 1697 3084 1428 2787 
Q 1159 2491 1159 1978 
L 1159 0 
L 581 0 
L 581 4863 
L 1159 4863 
L 1159 2956 
Q 1366 3272 1645 3428 
Q 1925 3584 2291 3584 
Q 2894 3584 3203 3211 
Q 3513 2838 3513 2113 
z
" transform="scale(0.015625)"/>
      <path id="DejaVuSans-65" d="M 3597 1894 
L 3597 1613 
L 953 1613 
Q 991 1019 1311 708 
Q 1631 397 2203 397 
Q 2534 397 2845 478 
Q 3156 559 3463 722 
L 3463 178 
Q 3153 47 2828 -22 
Q 2503 -91 2169 -91 
Q 1331 -91 842 396 
Q 353 884 353 1716 
Q 353 2575 817 3079 
Q 1281 3584 2069 3584 
Q 2775 3584 3186 3129 
Q 3597 2675 3597 1894 
z
M 3022 2063 
Q 3016 2534 2758 2815 
Q 2500 3097 2075 3097 
Q 1594 3097 1305 2825 
Q 1016 2553 972 2059 
L 3022 2063 
z
" transform="scale(0.015625)"/>
      <path id="DejaVuSans-20" transform="scale(0.015625)"/>
      <path id="DejaVuSans-77" d="M 269 3500 
L 844 3500 
L 1563 769 
L 2278 3500 
L 2956 3500 
L 3675 769 
L 4391 3500 
L 4966 3500 
L 4050 0 
L 3372 0 
L 2619 2869 
L 1863 0 
L 1184 0 
L 269 3500 
z
" transform="scale(0.015625)"/>
      <path id="DejaVuSans-64" d="M 2906 2969 
L 2906 4863 
L 3481 4863 
L 3481 0 
L 2906 0 
L 2906 525 
Q 2725 213 2448 61 
Q 2172 -91 1784 -91 
Q 1150 -91 751 415 
Q 353 922 353 1747 
Q 353 2572 751 3078 
Q 1150 3584 1784 3584 
Q 2172 3584 2448 3432 
Q 2725 3281 2906 2969 
z
M 947 1747 
Q 947 1113 1208 752 
Q 1469 391 1925 391 
Q 2381 391 2643 752 
Q 2906 1113 2906 1747 
Q 2906 2381 2643 2742 
Q 2381 3103 1925 3103 
Q 1469 3103 1208 2742 
Q 947 2381 947 1747 
z
" transform="scale(0.015625)"/>
      <path id="DejaVuSans-61" d="M 2194 1759 
Q 1497 1759 1228 1600 
Q 959 1441 959 1056 
Q 959 750 1161 570 
Q 1363 391 1709 391 
Q 2188 391 2477 730 
Q 2766 1069 2766 1631 
L 2766 1759 
L 2194 1759 
z
M 3341 1997 
L 3341 0 
L 2766 0 
L 2766 531 
Q 2569 213 2275 61 
Q 1981 -91 1556 -91 
Q 1019 -91 701 211 
Q 384 513 384 1019 
Q 384 1609 779 1909 
Q 1175 2209 1959 2209 
L 2766 2209 
L 2766 2266 
Q 2766 2663 2505 2880 
Q 2244 3097 1772 3097 
Q 1472 3097 1187 3025 
Q 903 2953 641 2809 
L 641 3341 
Q 956 3463 1253 3523 
Q 1550 3584 1831 3584 
Q 2591 3584 2966 3190 
Q 3341 2797 3341 1997 
z
" transform="scale(0.015625)"/>
      <path id="DejaVuSans-73" d="M 2834 3397 
L 2834 2853 
Q 2591 2978 2328 3040 
Q 2066 3103 1784 3103 
Q 1356 3103 1142 2972 
Q 928 2841 928 2578 
Q 928 2378 1081 2264 
Q 1234 2150 1697 2047 
L 1894 2003 
Q 2506 1872 2764 1633 
Q 3022 1394 3022 966 
Q 3022 478 2636 193 
Q 2250 -91 1575 -91 
Q 1294 -91 989 -36 
Q 684 19 347 128 
L 347 722 
Q 666 556 975 473 
Q 1284 391 1588 391 
Q 1994 391 2212 530 
Q 2431 669 2431 922 
Q 2431 1156 2273 1281 
Q 2116 1406 1581 1522 
L 1381 1569 
Q 847 1681 609 1914 
Q 372 2147 372 2553 
Q 372 3047 722 3315 
Q 1072 3584 1716 3584 
Q 2034 3584 2315 3537 
Q 2597 3491 2834 3397 
z
" transform="scale(0.015625)"/>
     </defs>
     <use xlink:href="#DejaVuSans-54"/>
     <use xlink:href="#DejaVuSans-68" x="61.083984"/>
     <use xlink:href="#DejaVuSans-65" x="124.462891"/>
     <use xlink:href="#DejaVuSans-20" x="185.986328"/>
     <use xlink:href="#DejaVuSans-74" x="217.773438"/>
     <use xlink:href="#DejaVuSans-77" x="256.982422"/>
     <use xlink:href="#DejaVuSans-6f" x="338.769531"/>
     <use xlink:href="#DejaVuSans-20" x="399.951172"/>
     <use xlink:href="#DejaVuSans-64" x="431.738281"/>
     <use xlink:href="#DejaVuSans-61" x="495.214844"/>
     <use xlink:href="#DejaVuSans-74" x="556.494141"/>
     <use xlink:href="#DejaVuSans-61" x="595.703125"/>
     <use xlink:href="#DejaVuSans-73" x="656.982422"/>
     <use xlink:href="#DejaVuSans-65" x="709.082031"/>
     <use xlink:href="#DejaVuSans-74" x="770.605469"/>
     <use xlink:href="#DejaVuSans-73" x="809.814453"/>
    </g>
   </g>
   <g id="legend_1">
    <g id="patch_7">
     <path d="M 324.455938 59.674375 
L 393.90125 59.674375 
Q 395.90125 59.674375 395.90125 57.674375 
L 395.90125 29.318125 
Q 395.90125 27.318125 393.90125 27.318125 
L 324.455938 27.318125 
Q 322.455938 27.318125 322.455938 29.318125 
L 322.455938 57.674375 
Q 322.455938 59.674375 324.455938 59.674375 
z
" style="fill: #ffffff; opacity: 0.8; stroke: #cccccc; stroke-linejoin: miter"/>
    </g>
    <g id="line2d_26">
     <path d="M 326.455938 35.416562 
L 336.455938 35.416562 
L 346.455938 35.416562 
" style="fill: none; stroke: #000000; stroke-width: 1.5; stroke-linecap: square"/>
    </g>
    <g id="text_16">
     <!-- smooth -->
     <g transform="translate(354.455938 38.916562)scale(0.1 -0.1)">
      <defs>
       <path id="DejaVuSans-6d" d="M 3328 2828 
Q 3544 3216 3844 3400 
Q 4144 3584 4550 3584 
Q 5097 3584 5394 3201 
Q 5691 2819 5691 2113 
L 5691 0 
L 5113 0 
L 5113 2094 
Q 5113 2597 4934 2840 
Q 4756 3084 4391 3084 
Q 3944 3084 3684 2787 
Q 3425 2491 3425 1978 
L 3425 0 
L 2847 0 
L 2847 2094 
Q 2847 2600 2669 2842 
Q 2491 3084 2119 3084 
Q 1678 3084 1418 2786 
Q 1159 2488 1159 1978 
L 1159 0 
L 581 0 
L 581 3500 
L 1159 3500 
L 1159 2956 
Q 1356 3278 1631 3431 
Q 1906 3584 2284 3584 
Q 2666 3584 2933 3390 
Q 3200 3197 3328 2828 
z
" transform="scale(0.015625)"/>
      </defs>
      <use xlink:href="#DejaVuSans-73"/>
      <use xlink:href="#DejaVuSans-6d" x="52.099609"/>
      <use xlink:href="#DejaVuSans-6f" x="149.511719"/>
      <use xlink:href="#DejaVuSans-6f" x="210.693359"/>
      <use xlink:href="#DejaVuSans-74" x="271.875"/>
      <use xlink:href="#DejaVuSans-68" x="311.083984"/>
     </g>
    </g>
    <g id="PathCollection_2">
     <g>
      <use xlink:href="#mabc36dbb8e" x="336.455938" y="50.969687" style="fill: #0000ff; stroke: #0000ff"/>
     </g>
    </g>
    <g id="text_17">
     <!-- noisy -->
     <g transform="translate(354.455938 53.594687)scale(0.1 -0.1)">
      <defs>
       <path id="DejaVuSans-6e" d="M 3513 2113 
L 3513 0 
L 2938 0 
L 2938 2094 
Q 2938 2591 2744 2837 
Q 2550 3084 2163 3084 
Q 1697 3084 1428 2787 
Q 1159 2491 1159 1978 
L 1159 0 
L 581 0 
L 581 3500 
L 1159 3500 
L 1159 2956 
Q 1366 3272 1645 3428 
Q 1925 3584 2291 3584 
Q 2894 3584 3203 3211 
Q 3513 2838 3513 2113 
z
" transform="scale(0.015625)"/>
       <path id="DejaVuSans-69" d="M 603 3500 
L 1178 3500 
L 1178 0 
L 603 0 
L 603 3500 
z
M 603 4863 
L 1178 4863 
L 1178 4134 
L 603 4134 
L 603 4863 
z
" transform="scale(0.015625)"/>
       <path id="DejaVuSans-79" d="M 2059 -325 
Q 1816 -950 1584 -1140 
Q 1353 -1331 966 -1331 
L 506 -1331 
L 506 -850 
L 844 -850 
Q 1081 -850 1212 -737 
Q 1344 -625 1503 -206 
L 1606 56 
L 191 3500 
L 800 3500 
L 1894 763 
L 2988 3500 
L 3597 3500 
L 2059 -325 
z
" transform="scale(0.015625)"/>
      </defs>
      <use xlink:href="#DejaVuSans-6e"/>
      <use xlink:href="#DejaVuSans-6f" x="63.378906"/>
      <use xlink:href="#DejaVuSans-69" x="124.560547"/>
      <use xlink:href="#DejaVuSans-73" x="152.34375"/>
      <use xlink:href="#DejaVuSans-79" x="204.443359"/>
     </g>
    </g>
   </g>
  </g>
 </g>
 <defs>
  <clipPath id="p7ccb6bcec2">
   <rect x="43.78125" y="22.318125" width="357.12" height="266.112"/>
  </clipPath>
 </defs>
</svg>
